<?xml version="1.0" encoding="UTF-8" standalone="no"?>
<svg
   xmlns:dc="http://purl.org/dc/elements/1.1/"
   xmlns:cc="http://creativecommons.org/ns#"
   xmlns:rdf="http://www.w3.org/1999/02/22-rdf-syntax-ns#"
   xmlns:svg="http://www.w3.org/2000/svg"
   xmlns="http://www.w3.org/2000/svg"
   xmlns:sodipodi="http://sodipodi.sourceforge.net/DTD/sodipodi-0.dtd"
   xmlns:inkscape="http://www.inkscape.org/namespaces/inkscape"
   viewBox="0 0 41.15 41.14"
   version="1.1"
   id="svg10"
   sodipodi:docname="tao-all.svg"
   inkscape:version="0.92.5 (2060ec1f9f, 2020-04-08)">
  <metadata
     id="metadata14">
    <rdf:RDF>
      <cc:Work
         rdf:about="">
        <dc:format>image/svg+xml</dc:format>
        <dc:type
           rdf:resource="http://purl.org/dc/dcmitype/StillImage" />
        <dc:title>butterfly</dc:title>
      </cc:Work>
    </rdf:RDF>
  </metadata>
  <sodipodi:namedview
     pagecolor="#ffffff"
     bordercolor="#666666"
     borderopacity="1"
     objecttolerance="10"
     gridtolerance="10"
     guidetolerance="10"
     inkscape:pageopacity="0"
     inkscape:pageshadow="2"
     inkscape:window-width="1680"
     inkscape:window-height="1027"
     id="namedview12"
     showgrid="false"
     inkscape:snap-page="true"
     inkscape:snap-bbox="true"
     inkscape:bbox-paths="true"
     inkscape:bbox-nodes="true"
     inkscape:snap-nodes="false"
     inkscape:zoom="5.7365096"
     inkscape:cx="-9.1469052"
     inkscape:cy="27.542881"
     inkscape:window-x="-8"
     inkscape:window-y="-8"
     inkscape:window-maximized="1"
     inkscape:current-layer="layer2" />
  <defs
     id="defs4">
    <style
       id="style2">.a{fill:none;stroke:#231f20;stroke-miterlimit:10;stroke-width:5px;}</style>
    <style
       id="style821">.a{fill:none;stroke:#000;stroke-linejoin:round;stroke-width:5px;fill-rule:evenodd;}</style>
    <style
       id="style837">.a{fill:none;stroke:#000;stroke-linecap:round;stroke-linejoin:round;stroke-width:5px;fill-rule:evenodd;}</style>
    <style
       id="style853">.a{fill:none;stroke:#000;stroke-linejoin:round;stroke-width:5px;fill-rule:evenodd;}</style>
    <style
       id="style869">.a{fill:none;stroke:#000;stroke-linejoin:round;stroke-width:5px;}</style>
    <style
       id="style885">.a{fill:none;stroke:#000;stroke-linejoin:round;stroke-width:5px;}</style>
    <style
       id="style901">.a{fill:none;stroke:#000;stroke-miterlimit:10;stroke-width:5px;}</style>
    <style
       id="style917">.a{fill:none;stroke:#000;stroke-miterlimit:10;stroke-width:5px;}</style>
    <style
       id="style933">.a{fill:none;stroke:#231f20;stroke-miterlimit:10;stroke-width:5px;}</style>
    <style
       id="style949">.a{fill:none;stroke:#000;stroke-miterlimit:10;stroke-width:5px;fill-rule:evenodd;}</style>
  </defs>
  <title
     id="title6">butterfly</title>
  <g
     inkscape:groupmode="layer"
     id="layer1"
     inkscape:label="black"
     style="display:inline">
    <path
       id="path955"
       d="m 23.172964,41.139999 c -2.280135,-0.05691 0.376221,0 0,0 A 30.599404,30.547687 0 0 1 16.33256,40.229488 C 15.602917,40.047384 15.431908,39.68318 15.637119,39.000295 a 12.118915,12.098432 0 0 0 0.49023,-3.81277 47.64341,47.562885 0 0 0 -0.05701,-5.019198 C 15.021484,24.477625 11.840691,27.152255 9.3439442,28.233487 4.7836747,30.213852 2.7087522,28.404209 1.3634729,25.957207 0.10939893,23.680927 -0.76845286,21.563986 0.9872507,18.377193 A 9.7247736,9.7083371 0 0 1 4.4074525,14.871721 C 4.7494726,14.405083 2.3439307,13.096221 3.9514255,8.7712881 4.8634793,6.3698116 6.0947519,5.3568667 8.93352,4.5032614 9.663163,4.2870147 11.339061,4.1390565 12.102907,4.0024797 a 5.5179255,5.5085992 0 0 0 3.066786,-2.3673319 c 3.169385,-3.9379665 11.127055,0.07967 13.122172,3.2095558 a 3.8078246,3.8013888 0 0 0 4.355057,1.6503035 4.8338851,4.8257151 0 0 1 3.135185,0.7284097 5.4723227,5.4630736 0 0 1 1.903912,1.4454386 5.7003362,5.6907017 0 0 1 1.835508,3.7444816 5.0732992,5.0647245 0 0 1 -0.433226,3.334752 c -0.125406,0.295916 -0.69544,1.047089 -0.558632,1.388531 0.136808,0.341442 0.991858,0.751172 1.311077,1.047089 3.203591,3.016071 0,10.357077 -3.933232,10.357077 -3.043979,0 -11.115655,-6.56707 -9.485359,0.967419 0.524431,2.43562 2.017919,5.633795 2.758962,8.171848 0.820849,2.731537 -4.58307,3.459946 -6.008153,3.459946 z"
       class="a"
       inkscape:connector-curvature="0"
       style="display:none;opacity:1;vector-effect:none;fill:#000000;fill-opacity:1;fill-rule:evenodd;stroke:none;stroke-width:5.69551706px;stroke-linecap:butt;stroke-linejoin:miter;stroke-miterlimit:10;stroke-dasharray:none;stroke-dashoffset:0;stroke-opacity:1"
       inkscape:label="tree" />
    <path
       id="path939"
       d="M 39.266941,29.444896 C 38.39036,28.761984 37.149487,27.817289 35.965536,27.077468 34.588052,26.064481 35.111723,24.801094 35.248333,23.423887 35.56709,20.954021 35.56709,21.363769 35.772005,19.417469 36.17045,15.638688 34.28068,11.222524 31.605403,8.1608003 A 43.259792,43.251104 0 0 0 25.492112,2.6633575 C 23.329122,0.96745889 21.940258,0.07967309 20.608311,0 h -0.07969 C 19.196676,0.07967309 17.796425,0.95607702 15.64482,2.6633575 A 43.259792,43.251104 0 0 0 9.5429117,8.1494184 C 6.8676347,11.211142 4.9892489,15.638688 5.3763103,19.406087 c 0.2049148,1.9463 0.2049148,1.547934 0.5236711,4.006419 0.1366099,1.377206 0.660281,2.640594 -0.7172018,3.653579 -1.1384156,0.739822 -2.4248251,1.695899 -3.3014052,2.367429 -1.78731244,1.21786 -2.45897763,2.162555 -1.32056206,4.051946 A 32.399307,32.3928 0 0 0 5.501536,40.018653 c 1.5027085,1.354441 2.2768311,1.707279 4.4967419,-0.250402 1.1384151,-1.024367 1.8783861,-1.866626 3.4835511,-3.41456 2.743582,-2.663358 3.358327,-2.595066 4.553663,-2.663358 h 5.1001 c 1.138415,0.06829 1.775928,0 4.553662,2.663358 1.605166,1.559316 2.276831,2.390193 3.483552,3.41456 2.27683,1.957681 2.994033,1.616225 4.496741,0.250402 a 32.387923,32.381418 0 0 0 4.940724,-6.533193 c 1.115647,-1.889391 0.421213,-2.834086 -1.34333,-4.040564 z"
       class="a"
       inkscape:connector-curvature="0"
       style="display:none;opacity:1;vector-effect:none;fill:#000000;fill-opacity:1;fill-rule:evenodd;stroke:none;stroke-width:5.69150639px;stroke-linecap:butt;stroke-linejoin:miter;stroke-miterlimit:10;stroke-dasharray:none;stroke-dashoffset:0;stroke-opacity:1"
       inkscape:label="rocket" />
    <path
       id="path891"
       d="M 41.115876,16.002251 A 0.94399424,0.94492396 0 0 0 40.660939,15.034558 10.304323,10.314471 0 0 1 39.648704,14.237634 L 29.935799,6.8945512 20.939421,0.06377562 a 1.1373425,1.1384626 0 0 0 -0.750646,0 L 11.19239,6.8945512 1.4794857,14.237634 a 10.236082,10.246163 0 0 1 -1.01223478,0.796924 0.94399424,0.94492396 0 0 0 -0.45493698,0.967693 q 0,5.316621 0,10.644625 c 0,4.553851 0,9.107701 0,13.58186 0,0.74 0.1819748,0.922154 0.94399424,0.91077 4.01481882,0 7.96139702,0 12.01033582,0 0.705153,0 0.887127,-0.204924 0.875754,-0.888001 0,-3.324311 0,-9.107701 0,-12.523089 0,-0.603385 0.216095,-0.796924 0.841634,-0.774155 h 5.845946 0.102366 5.84594 c 0.625539,0 0.841633,0.17077 0.841633,0.774155 0,3.324311 0,9.107701 0,12.523089 0,0.683077 0.170601,0.899385 0.875754,0.888001 4.014818,0 7.961397,0 12.010336,0 0.762019,0 0.943995,-0.17077 0.943995,-0.91077 0,-4.553851 0,-9.107701 0,-13.58186 q -0.03412,-5.31662 -0.03412,-10.644625 z"
       class="a"
       inkscape:connector-curvature="0"
       style="display:none;opacity:1;vector-effect:none;fill:#000000;fill-opacity:1;fill-rule:evenodd;stroke:none;stroke-width:5.68951225px;stroke-linecap:butt;stroke-linejoin:miter;stroke-miterlimit:10;stroke-dasharray:none;stroke-dashoffset:0;stroke-opacity:1"
       inkscape:label="house" />
    <path
       id="path907"
       d="m 28.808313,26.124324 a 7.6579061,7.6896279 0 0 1 -3.202189,-3.696056 5.9371563,5.9617502 0 0 1 0,-3.661728 7.6579061,7.6896279 0 0 1 3.179398,-3.696056 c 2.085411,-1.521905 10.60939,-5.5612485 11.885708,-6.9687247 0.592576,-0.6522452 0.638159,-1.0870753 0,-1.6248915 -0.273496,-0.240301 -0.968634,-0.9497607 -1.253526,-1.14429 A 25.788454,25.895279 0 0 0 23.794208,1.8717195e-4 24.044913,24.144516 0 0 0 18.49521,0.5723321 23.680252,23.778343 0 0 0 3.8403488,9.3833636 18.404045,18.480281 0 0 0 0,19.601872 c 0,0.308958 0,0.903989 0,0.903989 v 0 c 0,0 0,0 0,0.0801 0,0.0801 0,0 0,0.0801 v 0 c 0,0 0,0.606474 0,0.903988 a 18.404045,18.480281 0 0 0 3.8403488,10.241395 23.680252,23.778343 0 0 0 14.6548612,8.811031 23.99933,24.098744 0 0 0 5.298998,0.514932 25.79985,25.906723 0 0 0 15.623496,-5.298063 c 0.284892,-0.217416 0.98003,-0.926875 1.253526,-1.14429 0.66095,-0.549258 0.615367,-0.972646 0,-1.624891 -1.242131,-1.384592 -9.766109,-5.423935 -11.862917,-6.945839 z"
       class="a"
       inkscape:connector-curvature="0"
       style="display:none;opacity:1;vector-effect:none;fill:#000000;fill-opacity:1;fill-rule:evenodd;stroke:none;stroke-width:5.70963573px;stroke-linecap:butt;stroke-linejoin:miter;stroke-miterlimit:10;stroke-dasharray:none;stroke-dashoffset:0;stroke-opacity:1"
       inkscape:label="moon" />
    <path
       id="path875"
       d="M 41.087581,11.362665 C 40.108623,-1.6364624 26.904075,-3.8674861 20.597767,6.6957276 14.23454,-3.8788688 1.0527601,-1.6364624 0.06241909,11.362665 -0.74579026,22.051089 6.4256448,30.508489 13.972727,36.757631 A 38.407019,38.405477 0 0 0 20.575,41.139999 38.156588,38.155056 0 0 0 27.188657,36.757631 C 34.724355,30.508489 41.89579,22.051089 41.087581,11.362665 Z"
       class="a"
       inkscape:connector-curvature="0"
       style="display:none;opacity:1;vector-effect:none;fill:#000000;fill-opacity:1;fill-rule:evenodd;stroke:none;stroke-width:5.69150114px;stroke-linecap:butt;stroke-linejoin:miter;stroke-miterlimit:10;stroke-dasharray:none;stroke-dashoffset:0;stroke-opacity:1"
       inkscape:label="heart" />
    <path
       id="path859"
       d="M 12.768262,30.696403 A 19.469401,20.273365 0 0 1 10.31788,32.018579 7.6407376,7.9562519 0 0 1 4.9270387,32.111364 8.0305711,8.3621831 0 0 1 0.3938314,21.81231 6.5157893,6.7848503 0 0 1 4.5037908,17.173095 C 5.617601,16.767164 6.7314111,16.407625 7.9566023,16.08288 A 20.694592,21.549148 0 0 1 5.5841866,13.438527 6.927899,7.2139776 0 0 1 4.1139573,8.1962159 7.8857758,8.2114086 0 0 1 7.5556306,2.3971983 7.9860187,8.315791 0 0 1 14.405563,0.90105177 8.4760951,8.8261045 0 0 1 19.607057,5.296707 L 20.1751,6.3405301 C 20.642899,5.4358834 21.032733,4.6008249 21.511671,3.8121585 A 7.796671,8.1186244 0 0 1 30.644915,0.43713047 8.2756093,8.6173399 0 0 1 35.735027,5.5402657 6.4489607,6.7152622 0 0 1 34.77715,12.209135 c -0.612596,0.881451 -1.34771,1.646922 -2.049411,2.586362 0.579182,0.08119 1.113811,0.127579 1.637302,0.220363 a 8.8102382,9.1740456 0 0 1 4.45524,2.099245 6.7496894,7.0284091 0 0 1 2.227621,6.529693 8.3869903,8.7333202 0 0 1 -3.430536,6.239743 7.9971568,8.327389 0 0 1 -7.117246,1.032225 12.90906,13.442123 0 0 1 -2.383554,-0.916245 15.771551,16.422817 0 0 1 0.267314,3.47941 7.4179755,7.7242912 0 0 1 -4.733693,6.958822 9.5119386,9.9047217 0 0 1 -5.992299,0.359538 6.7831037,7.0632032 0 0 1 -4.455241,-3.769361 8.242195,8.5825458 0 0 1 -0.679423,-4.291273 c 0.155933,-0.672685 0.200485,-1.333773 0.245038,-2.041254 z"
       class="a"
       inkscape:connector-curvature="0"
       style="display:inline;opacity:1;vector-effect:none;fill:#000000;fill-opacity:1;fill-rule:evenodd;stroke:none;stroke-width:5.68287086px;stroke-linecap:butt;stroke-linejoin:miter;stroke-miterlimit:10;stroke-dasharray:none;stroke-dashoffset:0;stroke-opacity:1"
       inkscape:label="flower" />
    <path
       id="path843"
       d="M 22.200567,41.121918 A 26.382328,26.374098 0 0 1 8.9809365,38.128226 16.453373,16.448239 0 0 1 0.68023849,27.781201 18.992543,18.986618 0 0 1 0.03121272,21.65722 11.135915,11.132441 0 0 1 1.0446038,17.639068 a 14.437976,14.433473 0 0 1 1.799054,-3.335179 4.3837705,4.382403 0 0 1 0.6604121,-0.694354 1.1386417,1.1382865 0 0 1 1.7990543,0.113828 c 0.7742762,0.7968 1.503007,1.639132 2.2772833,2.42455 a 7.7996956,7.7972624 0 0 0 5.4996385,2.276573 17.375673,17.370252 0 0 0 5.579345,-0.682971 c 0.523775,-0.159361 0.626253,-0.398401 0.466843,-0.887864 a 8.1185153,8.1159826 0 0 0 -1.480235,-2.390402 7.537808,7.5354566 0 0 1 -1.662416,-4.9173975 8.8586324,8.8558688 0 0 1 1.719349,-4.997079 10.498276,10.495001 0 0 1 6.262529,-4.32548838 8.1754473,8.1728969 0 0 1 7.241762,1.76434378 17.227649,17.222275 0 0 1 3.415925,3.6994311 3.3020609,3.3010308 0 0 0 2.493625,1.38871 c 0.808436,0.091063 1.628258,0.1138287 2.436693,0.1479772 1.320824,0 1.867372,0.8195666 1.468848,2.1058308 a 7.75415,7.751731 0 0 1 -3.028787,4.063683 c -1.138642,0.819567 -2.379761,1.491155 -3.563949,2.276572 -0.387138,0.239041 -0.512388,0.375635 -0.170796,0.808185 1.320824,1.639131 2.687195,3.232732 3.848609,4.997077 a 11.523054,11.51946 0 0 1 2.072328,7.785879 11.022051,11.018613 0 0 1 -2.778286,6.294725 c -2.835217,3.141671 -6.54719,4.553146 -10.577981,5.201968 a 23.911475,23.904016 0 0 1 -4.622885,0.364252 z"
       class="a"
       inkscape:connector-curvature="0"
       style="display:none;opacity:1;vector-effect:none;fill:#000000;fill-opacity:1;fill-rule:evenodd;stroke:none;stroke-width:5.69232035px;stroke-linecap:butt;stroke-linejoin:miter;stroke-miterlimit:10;stroke-dasharray:none;stroke-dashoffset:0;stroke-opacity:1"
       inkscape:label="duck" />
    <path
       id="path827"
       d="M 26.898573,0.00361125 A 19.018043,19.000971 0 0 1 35.769864,2.6660228 2.7786842,2.7761899 0 0 1 36.908669,4.82781 c 0.204985,2.2072985 0.558015,4.3918407 0.865492,6.587762 0.341642,2.389343 0.740223,4.778686 1.138805,7.156652 0.512463,3.09477 1.059088,6.189539 1.582939,9.284308 0.296089,1.718052 0.296089,3.413348 0.637731,5.176911 0.06833,0.329957 -0.07972,0.466491 -0.398582,0.466491 -0.569403,0 -1.138805,0 -1.708207,0 -0.569403,0 -0.569403,0.170668 -0.592179,0.603025 a 8.3588286,8.3513253 0 0 1 -1.628491,4.733176 5.1815627,5.1769114 0 0 1 -8.620754,0 8.4157688,8.4082144 0 0 1 -1.628491,-4.733176 c 0,-0.443736 -0.170821,-0.591647 -0.614955,-0.591647 -3.416415,0 -6.83283,0 -10.192304,0 -0.671895,0 -0.660507,0.477869 -0.683284,0.864715 A 8.1310675,8.1237687 0 0 1 13.301242,39.063692 5.1132343,5.1086444 0 0 1 6.1153827,40.087696 7.3566802,7.3500765 0 0 1 3.3025344,34.512561 C 3.222818,33.590957 3.2000423,33.52269 2.2548338,33.52269 c -0.5466263,0 -1.1388049,0 -1.63987912,0 C 0.1138805,33.52269 0.01138805,33.317889 0,32.874153 A 15.487747,15.473845 0 0 1 0.35302954,29.984186 Q 0.92243203,26.195369 1.4918345,22.41793 c 0.227761,-1.490495 0.4441339,-2.992368 0.7174471,-4.482864 0.1935969,-1.046759 0.7402232,-1.388094 2.27761,-1.479117 2.2776099,-0.147912 4.5552199,-0.261691 6.8328294,-0.432357 0.637731,0 1.264074,-0.136534 1.901804,-0.125157 0.432746,0 0.637732,-0.193422 0.717448,-0.637158 a 64.604406,64.546414 0 0 0 0.842716,-8.2261685 8.5296492,8.5219926 0 0 1 0.740222,-3.8912169 3.7580565,3.754683 0 0 1 2.847013,-1.979742 c 1.935969,-0.32995696 3.871937,-0.67129178 5.830681,-0.92160398 a 12.025781,12.014986 0 0 1 2.698968,-0.23893437 z"
       class="a"
       inkscape:connector-curvature="0"
       style="display:none;opacity:1;vector-effect:none;fill:#000000;fill-opacity:1;fill-rule:evenodd;stroke:none;stroke-width:5.69146872px;stroke-linecap:butt;stroke-linejoin:miter;stroke-miterlimit:10;stroke-dasharray:none;stroke-dashoffset:0;stroke-opacity:1"
       inkscape:label="car" />
    <path
       id="path923"
       d="m 38.12891,23.348184 c -1.809869,-1.776903 -5.224715,-2.118615 -3.938456,-5.250976 a 35.685139,35.708924 0 0 0 2.515603,-10.4905646 8.2183958,8.2238734 0 0 0 -1.991993,-6.1736 C 33.427805,0.29400275 32.870047,-0.37803122 30.957733,0.23705072 27.167254,1.4330434 26.097269,4.3034258 25.4143,7.5496913 25.004519,9.4860601 24.936221,12.481737 24.002831,13.894147 A 4.4620653,4.4650393 0 0 1 20.587984,15.92164 4.4620653,4.4650393 0 0 1 17.173138,13.894147 C 16.239747,12.470347 16.171451,9.4860601 15.761669,7.5496913 15.0787,4.3034258 14.008715,1.4330434 10.218236,0.23705072 c -1.912314,-0.60369153 -2.4700721,0 -3.7563307,1.19599268 A 8.2183958,8.2238734 0 0 0 4.4585289,7.6408147 35.719288,35.743095 0 0 0 6.9741321,18.131378 c 1.2862586,3.132363 -2.13997,3.474075 -3.9384556,5.216806 -7.4329813,7.301251 0.250422,13.941858 7.3533015,16.094645 a 51.689384,51.723836 0 0 0 10.176241,1.69717 51.222689,51.256829 0 0 0 10.187624,-1.69717 c 7.102879,-2.118616 14.786282,-8.759223 7.376067,-16.094645 z"
       class="a"
       inkscape:connector-curvature="0"
       style="display:none;opacity:1;vector-effect:none;fill:#000000;fill-opacity:1;fill-rule:evenodd;stroke:none;stroke-width:5.69330597px;stroke-linecap:butt;stroke-linejoin:miter;stroke-miterlimit:10;stroke-dasharray:none;stroke-dashoffset:0;stroke-opacity:1"
       inkscape:label="bunny" />
    <path
       class="a"
       d="M 37.732656,19.623973 A 25.11293,25.070024 0 0 0 41.149381,6.8217752 C 40.932989,3.5018446 39.110736,0 35.306781,0 31.09282,0 27.23192,3.7519763 25.648837,7.1173855 24.316315,9.9597917 25.181886,14.700925 20.569306,14.84873 16.013673,14.700925 16.822298,9.9597917 15.489774,7.1173855 13.918081,3.7064979 10.057182,0.05684812 5.8432207,0 2.0278775,0 0.20562408,3.4108876 6.2056314e-4,6.8217752 A 25.11293,25.070024 0 0 0 3.4173458,19.623973 c 2.710602,4.54785 -2.1297587,7.719976 -1.2072429,12.336044 0.683345,3.410887 3.9520122,8.80009 7.8243011,9.152548 3.872288,0.352458 5.523705,-7.538062 7.027064,-10.084858 a 4.4531318,4.4455235 0 0 1 7.106789,0 c 1.412246,2.558166 2.915605,10.516903 6.947341,10.096228 4.031736,-0.420677 7.140956,-5.7644 7.824301,-9.152548 0.922516,-4.627438 -3.917845,-7.754085 -1.207243,-12.347414 z"
       id="path8"
       inkscape:connector-curvature="0"
       style="display:none;fill:#000000;fill-opacity:1;fill-rule:evenodd;stroke:none;stroke-width:5.68967533px;stroke-miterlimit:10"
       inkscape:label="butterfly" />
  </g>
  <g
     inkscape:groupmode="layer"
     id="layer2"
     inkscape:label="white"
     style="display:inline">
    <path
       id="path939-5"
       d="M 39.266941,29.444891 C 38.39036,28.761979 37.149487,27.817284 35.965536,27.077463 34.588052,26.064476 35.111723,24.801089 35.248333,23.423882 35.56709,20.954016 35.56709,21.363764 35.772005,19.417464 36.17045,15.638683 34.28068,11.22252 31.605403,8.1607955 A 43.259792,43.251104 0 0 0 25.492112,2.6633535 C 23.329122,0.96745454 21.940258,0.07966854 20.608311,-4.4577867e-6 h -0.07969 C 19.196676,0.07966554 17.796425,0.95607254 15.64482,2.6633535 a 43.259792,43.251104 0 0 0 -6.1019088,5.48606 c -2.675277,3.0617245 -4.553662,7.4892695 -4.166601,11.2566685 0.204915,1.9463 0.204915,1.547934 0.523671,4.006419 0.13661,1.377206 0.660281,2.640594 -0.717202,3.653579 -1.138415,0.739822 -2.424825,1.695899 -3.301405,2.367429 -1.78731196,1.21786 -2.45897796,2.162555 -1.32056196,4.051947 a 32.399307,32.3928 0 0 0 4.94072396,6.533193 c 1.502708,1.354441 2.276831,1.707279 4.496742,-0.250402 1.1384148,-1.024367 1.8783858,-1.866626 3.4835508,-3.41456 2.743582,-2.663358 3.358327,-2.595066 4.553663,-2.663358 h 5.1001 c 1.138415,0.06829 1.775928,0 4.553662,2.663358 1.605166,1.559316 2.276831,2.390193 3.483552,3.41456 2.27683,1.957681 2.994033,1.616225 4.496741,0.250402 a 32.387923,32.381418 0 0 0 4.940724,-6.533193 c 1.115647,-1.889392 0.421213,-2.834087 -1.34333,-4.040565 z"
       class="a"
       inkscape:connector-curvature="0"
       style="display:none;opacity:1;vector-effect:none;fill:#ffffff;fill-opacity:1;fill-rule:evenodd;stroke:none;stroke-width:5.69150639px;stroke-linecap:butt;stroke-linejoin:miter;stroke-miterlimit:10;stroke-dasharray:none;stroke-dashoffset:0;stroke-opacity:1"
       inkscape:label="rocket" />
    <path
       id="path955-0"
       d="m 23.172964,41.139995 c -2.280135,-0.05691 0.376221,0 0,0 A 30.599404,30.547687 0 0 1 16.33256,40.229484 C 15.602917,40.04738 15.431908,39.683176 15.637119,39.000291 a 12.118915,12.098432 0 0 0 0.49023,-3.81277 47.64341,47.562885 0 0 0 -0.05701,-5.019199 c -1.048855,-5.690702 -4.229648,-3.016072 -6.7263948,-1.93484 -4.56027,1.980365 -6.635192,0.170722 -7.980471,-2.27628 -1.25407396,-2.27628 -2.13192596,-4.393221 -0.37622296,-7.580014 A 9.7247736,9.7083371 0 0 1 4.4074522,14.871716 c 0.34202,-0.466638 -2.063522,-1.7755 -0.456027,-6.1004325 0.912054,-2.401476 2.143327,-3.414421 4.982095,-4.268027 0.729643,-0.216246 2.4055408,-0.364204 3.1693868,-0.500781 a 5.5179255,5.5085992 0 0 0 3.066786,-2.367332 c 3.169385,-3.937967 11.127055,0.07967 13.122172,3.209556 a 3.8078246,3.8013888 0 0 0 4.355057,1.650303 4.8338851,4.8257151 0 0 1 3.135185,0.72841 5.4723227,5.4630736 0 0 1 1.903912,1.445438 5.7003362,5.6907017 0 0 1 1.835508,3.7444815 5.0732992,5.0647245 0 0 1 -0.433226,3.334752 c -0.125406,0.295916 -0.69544,1.047089 -0.558632,1.388531 0.136808,0.341442 0.991858,0.751172 1.311077,1.047089 3.203591,3.016071 0,10.357077 -3.933232,10.357077 -3.043979,0 -11.115655,-6.56707 -9.485359,0.967419 0.524431,2.43562 2.017919,5.633796 2.758962,8.171849 0.820849,2.731537 -4.58307,3.459946 -6.008153,3.459946 z"
       class="a"
       inkscape:connector-curvature="0"
       style="display:none;opacity:1;vector-effect:none;fill:#ffffff;fill-opacity:1;fill-rule:evenodd;stroke:none;stroke-width:5.69551706px;stroke-linecap:butt;stroke-linejoin:miter;stroke-miterlimit:10;stroke-dasharray:none;stroke-dashoffset:0;stroke-opacity:1"
       inkscape:label="tree" />
    <path
       id="path907-9"
       d="m 28.808313,26.124319 a 7.6579061,7.6896279 0 0 1 -3.202189,-3.696056 5.9371563,5.9617502 0 0 1 0,-3.661728 7.6579061,7.6896279 0 0 1 3.179398,-3.696056 c 2.085411,-1.521905 10.60939,-5.5612475 11.885708,-6.9687245 0.592576,-0.652245 0.638159,-1.087075 0,-1.624891 -0.273496,-0.240301 -0.968634,-0.949761 -1.253526,-1.14429 A 25.788454,25.895279 0 0 0 23.794208,1.8254221e-4 24.044913,24.144516 0 0 0 18.49521,0.57232754 23.680252,23.778343 0 0 0 3.8403482,9.3833595 18.404045,18.480281 0 0 0 2.3859045e-7,19.601867 c 0,0.308958 0,0.903989 0,0.903989 v 0 c 0,0 0,0 0,0.0801 0,0.0801 0,0 0,0.0801 v 0 c 0,0 0,0.606474 0,0.903988 A 18.404045,18.480281 0 0 0 3.8403482,31.811439 23.680252,23.778343 0 0 0 18.49521,40.622471 23.99933,24.098744 0 0 0 23.794208,41.137403 25.79985,25.906723 0 0 0 39.417704,35.83934 c 0.284892,-0.217416 0.98003,-0.926875 1.253526,-1.14429 0.66095,-0.549258 0.615367,-0.972646 0,-1.624891 -1.242131,-1.384593 -9.766109,-5.423936 -11.862917,-6.94584 z"
       class="a"
       inkscape:connector-curvature="0"
       style="display:none;opacity:1;vector-effect:none;fill:#ffffff;fill-opacity:1;fill-rule:evenodd;stroke:none;stroke-width:5.70963573px;stroke-linecap:butt;stroke-linejoin:miter;stroke-miterlimit:10;stroke-dasharray:none;stroke-dashoffset:0;stroke-opacity:1"
       inkscape:label="moon" />
    <path
       id="path891-9"
       d="M 41.115876,16.002246 A 0.94399424,0.94492396 0 0 0 40.660939,15.034553 10.304323,10.314471 0 0 1 39.648704,14.237629 L 29.935799,6.8945465 20.939421,0.06377154 a 1.1373425,1.1384626 0 0 0 -0.750646,0 L 11.19239,6.8945465 1.4794852,14.237629 a 10.236082,10.246163 0 0 1 -1.01223396,0.796924 0.94399424,0.94492396 0 0 0 -0.454937,0.967693 q 0,5.316621 0,10.644625 c 0,4.553851 0,9.107702 0,13.581861 0,0.74 0.181974,0.922154 0.943994,0.91077 4.01481896,0 7.96139696,0 12.01033576,0 0.705153,0 0.887127,-0.204924 0.875754,-0.888001 0,-3.324311 0,-9.107702 0,-12.52309 0,-0.603385 0.216095,-0.796924 0.841634,-0.774155 h 5.845946 0.102366 5.84594 c 0.625539,0 0.841633,0.17077 0.841633,0.774155 0,3.324311 0,9.107702 0,12.52309 0,0.683077 0.170601,0.899385 0.875754,0.888001 4.014818,0 7.961397,0 12.010336,0 0.762019,0 0.943995,-0.17077 0.943995,-0.91077 0,-4.553851 0,-9.107702 0,-13.581861 q -0.03412,-5.31662 -0.03412,-10.644625 z"
       class="a"
       inkscape:connector-curvature="0"
       style="display:none;opacity:1;vector-effect:none;fill:#ffffff;fill-opacity:1;fill-rule:evenodd;stroke:none;stroke-width:5.68951225px;stroke-linecap:butt;stroke-linejoin:miter;stroke-miterlimit:10;stroke-dasharray:none;stroke-dashoffset:0;stroke-opacity:1"
       inkscape:label="house" />
    <path
       id="path875-2"
       d="M 41.087581,11.362661 C 40.108623,-1.6364665 26.904075,-3.8674905 20.597767,6.6957235 14.23454,-3.8788735 1.0527602,-1.6364665 0.06241924,11.362661 -0.74579076,22.051084 6.4256442,30.508484 13.972727,36.757627 A 38.407019,38.405477 0 0 0 20.575,41.139995 38.156588,38.155056 0 0 0 27.188657,36.757627 C 34.724355,30.508484 41.89579,22.051084 41.087581,11.362661 Z"
       class="a"
       inkscape:connector-curvature="0"
       style="display:inline;opacity:1;vector-effect:none;fill:#ffffff;fill-opacity:1;fill-rule:evenodd;stroke:none;stroke-width:5.69150114px;stroke-linecap:butt;stroke-linejoin:miter;stroke-miterlimit:10;stroke-dasharray:none;stroke-dashoffset:0;stroke-opacity:1"
       inkscape:label="heart" />
    <path
       id="path859-7"
       d="M 12.768262,30.696398 A 19.469401,20.273365 0 0 1 10.31788,32.018575 7.6407376,7.9562519 0 0 1 4.9270382,32.111365 8.0305711,8.3621831 0 0 1 0.39383124,21.81231 6.5157893,6.7848503 0 0 1 4.5037902,17.173095 c 1.113811,-0.405931 2.227621,-0.76547 3.452812,-1.090215 A 20.694592,21.549148 0 0 1 5.5841862,13.438527 6.927899,7.2139776 0 0 1 4.1139572,8.1962165 7.8857758,8.2114086 0 0 1 7.5556302,2.3971985 7.9860187,8.315791 0 0 1 14.405563,0.90105254 8.4760951,8.8261045 0 0 1 19.607057,5.2967075 l 0.568043,1.043823 c 0.467799,-0.904647 0.857633,-1.739705 1.336571,-2.528371 A 7.796671,8.1186244 0 0 1 30.644915,0.43713054 8.2756093,8.6173399 0 0 1 35.735027,5.5402665 6.4489607,6.7152622 0 0 1 34.77715,12.209135 c -0.612596,0.881451 -1.34771,1.646922 -2.049411,2.586362 0.579182,0.08119 1.113811,0.127579 1.637302,0.220363 a 8.8102382,9.1740456 0 0 1 4.45524,2.099245 6.7496894,7.0284091 0 0 1 2.227621,6.529693 8.3869903,8.7333202 0 0 1 -3.430536,6.239743 7.9971568,8.327389 0 0 1 -7.117246,1.032225 12.90906,13.442123 0 0 1 -2.383554,-0.916245 15.771551,16.422817 0 0 1 0.267314,3.479411 7.4179755,7.7242912 0 0 1 -4.733693,6.958822 9.5119386,9.9047217 0 0 1 -5.992299,0.359538 6.7831037,7.0632032 0 0 1 -4.455241,-3.769361 8.242195,8.5825458 0 0 1 -0.679423,-4.291273 c 0.155933,-0.672685 0.200485,-1.333774 0.245038,-2.041255 z"
       class="a"
       inkscape:connector-curvature="0"
       style="display:none;opacity:1;vector-effect:none;fill:#ffffff;fill-opacity:1;fill-rule:evenodd;stroke:none;stroke-width:5.68287086px;stroke-linecap:butt;stroke-linejoin:miter;stroke-miterlimit:10;stroke-dasharray:none;stroke-dashoffset:0;stroke-opacity:1"
       inkscape:label="flower" />
    <path
       id="path843-3"
       d="M 22.200567,41.121914 A 26.382328,26.374098 0 0 1 8.9809362,38.128222 16.453373,16.448239 0 0 1 0.68023824,27.781196 a 18.992543,18.986618 0 0 1 -0.649026,-6.123981 11.135915,11.132441 0 0 1 1.01339096,-4.018152 14.437976,14.433473 0 0 1 1.799054,-3.335179 4.3837705,4.382403 0 0 1 0.660413,-0.694354 1.1386417,1.1382865 0 0 1 1.799054,0.113828 c 0.774276,0.7968 1.503007,1.639132 2.277283,2.42455 a 7.7996956,7.7972624 0 0 0 5.4996388,2.276573 17.375673,17.370252 0 0 0 5.579345,-0.682971 c 0.523775,-0.159361 0.626253,-0.398401 0.466843,-0.887864 a 8.1185153,8.1159826 0 0 0 -1.480235,-2.390402 7.537808,7.5354566 0 0 1 -1.662416,-4.9173965 8.8586324,8.8558688 0 0 1 1.719349,-4.997079 10.498276,10.495001 0 0 1 6.262529,-4.32548896 8.1754473,8.1728969 0 0 1 7.241762,1.76434396 17.227649,17.222275 0 0 1 3.415925,3.699431 3.3020609,3.3010308 0 0 0 2.493625,1.38871 c 0.808436,0.09106 1.628258,0.113829 2.436693,0.147977 1.320824,0 1.867372,0.819567 1.468848,2.105831 a 7.75415,7.751731 0 0 1 -3.028787,4.0636825 c -1.138642,0.819567 -2.379761,1.491155 -3.563949,2.276572 -0.387138,0.239041 -0.512388,0.375635 -0.170796,0.808185 1.320824,1.639131 2.687195,3.232732 3.848609,4.997077 a 11.523054,11.51946 0 0 1 2.072328,7.785879 11.022051,11.018613 0 0 1 -2.778286,6.294726 c -2.835217,3.141671 -6.54719,4.553146 -10.577981,5.201968 a 23.911475,23.904016 0 0 1 -4.622885,0.364252 z"
       class="a"
       inkscape:connector-curvature="0"
       style="display:none;opacity:1;vector-effect:none;fill:#ffffff;fill-opacity:1;fill-rule:evenodd;stroke:none;stroke-width:5.69232035px;stroke-linecap:butt;stroke-linejoin:miter;stroke-miterlimit:10;stroke-dasharray:none;stroke-dashoffset:0;stroke-opacity:1"
       inkscape:label="duck" />
    <path
       id="path923-6"
       d="m 38.12891,23.348179 c -1.809869,-1.776903 -5.224715,-2.118615 -3.938456,-5.250976 a 35.685139,35.708924 0 0 0 2.515603,-10.4905645 8.2183958,8.2238734 0 0 0 -1.991993,-6.1736 C 33.427805,0.29399854 32.870047,-0.37803546 30.957733,0.23704654 27.167254,1.4330385 26.097269,4.3034215 25.4143,7.5496865 25.004519,9.4860555 24.936221,12.481732 24.002831,13.894142 a 4.4620653,4.4650393 0 0 1 -3.414847,2.027493 4.4620653,4.4650393 0 0 1 -3.414846,-2.027493 C 16.239747,12.470342 16.171451,9.4860555 15.761669,7.5496865 15.0787,4.3034215 14.008715,1.4330385 10.218236,0.23704654 c -1.9123138,-0.603692 -2.4700718,0 -3.7563308,1.19599196 a 8.2183958,8.2238734 0 0 0 -2.003376,6.207772 35.719288,35.743095 0 0 0 2.515603,10.4905625 c 1.286258,3.132363 -2.13997,3.474075 -3.938456,5.216806 -7.432981,7.301251 0.250422,13.941859 7.3533018,16.094646 a 51.689384,51.723836 0 0 0 10.176241,1.69717 51.222689,51.256829 0 0 0 10.187624,-1.69717 c 7.102879,-2.118616 14.786282,-8.759224 7.376067,-16.094646 z"
       class="a"
       inkscape:connector-curvature="0"
       style="display:none;opacity:1;vector-effect:none;fill:#ffffff;fill-opacity:1;fill-rule:evenodd;stroke:none;stroke-width:5.69330597px;stroke-linecap:butt;stroke-linejoin:miter;stroke-miterlimit:10;stroke-dasharray:none;stroke-dashoffset:0;stroke-opacity:1"
       inkscape:label="bunny" />
    <path
       id="path827-1"
       d="m 26.898573,0.00360654 a 19.018043,19.000971 0 0 1 8.871291,2.66241196 2.7786842,2.7761899 0 0 1 1.138805,2.161787 c 0.204985,2.207299 0.558015,4.391841 0.865492,6.5877625 0.341642,2.389342 0.740223,4.778685 1.138805,7.156651 0.512463,3.09477 1.059088,6.189539 1.582939,9.284308 0.296089,1.718052 0.296089,3.413348 0.637731,5.176912 0.06833,0.329957 -0.07972,0.466491 -0.398582,0.466491 -0.569403,0 -1.138805,0 -1.708207,0 -0.569403,0 -0.569403,0.170668 -0.592179,0.603025 a 8.3588286,8.3513253 0 0 1 -1.628491,4.733176 5.1815627,5.1769114 0 0 1 -8.620754,0 8.4157688,8.4082144 0 0 1 -1.628491,-4.733176 c 0,-0.443736 -0.170821,-0.591647 -0.614955,-0.591647 -3.416415,0 -6.83283,0 -10.192304,0 -0.671895,0 -0.660507,0.477869 -0.683284,0.864715 a 8.1310675,8.1237687 0 0 1 -1.765147,4.687665 5.1132343,5.1086444 0 0 1 -7.1858598,1.024004 7.3566802,7.3500765 0 0 1 -2.812848,-5.575135 c -0.07972,-0.921604 -0.102492,-0.989871 -1.047701,-0.989871 -0.546626,0 -1.138804,0 -1.63987896,0 -0.501074,0 -0.603566,-0.204801 -0.61495400140941,-0.648537 A 15.487747,15.473845 0 0 1 0.35302924,29.984181 q 0.569403,-3.788817 1.13880496,-7.566256 c 0.227761,-1.490495 0.444134,-2.992368 0.717447,-4.482864 0.193597,-1.046759 0.740223,-1.388094 2.27761,-1.479117 2.27761,-0.147912 4.55522,-0.261691 6.8328298,-0.432357 0.637731,0 1.264074,-0.136534 1.901804,-0.125157 0.432746,0 0.637732,-0.193422 0.717448,-0.637158 a 64.604406,64.546414 0 0 0 0.842716,-8.2261675 8.5296492,8.5219926 0 0 1 0.740222,-3.891217 3.7580565,3.754683 0 0 1 2.847013,-1.979742 c 1.935969,-0.32995696 3.871937,-0.67129196 5.830681,-0.92160396 a 12.025781,12.014986 0 0 1 2.698968,-0.238935 z"
       class="a"
       inkscape:connector-curvature="0"
       style="display:none;opacity:1;vector-effect:none;fill:#ffffff;fill-opacity:1;fill-rule:evenodd;stroke:none;stroke-width:5.69146872px;stroke-linecap:butt;stroke-linejoin:miter;stroke-miterlimit:10;stroke-dasharray:none;stroke-dashoffset:0;stroke-opacity:1"
       inkscape:label="car" />
    <path
       class="a"
       d="M 37.732656,19.623968 A 25.11293,25.070024 0 0 0 41.149381,6.8217705 C 40.932989,3.5018405 39.110736,-4.4577867e-6 35.306781,-4.4577867e-6 31.09282,-4.4577867e-6 27.23192,3.7519715 25.648837,7.1173815 24.316315,9.9597875 25.181886,14.70092 20.569306,14.848725 16.013673,14.70092 16.822298,9.9597875 15.489774,7.1173815 13.918081,3.7064935 10.057182,0.05684354 5.8432202,-4.4577867e-6 2.0278772,-4.4577867e-6 0.20562424,3.4108835 6.2023859e-4,6.8217705 A 25.11293,25.070024 0 0 0 3.4173452,19.623968 c 2.710602,4.54785 -2.129758,7.719976 -1.207242,12.336044 0.683345,3.410888 3.952012,8.800091 7.8243008,9.152549 3.872288,0.352458 5.523705,-7.538062 7.027064,-10.084859 a 4.4531318,4.4455235 0 0 1 7.106789,0 c 1.412246,2.558167 2.915605,10.516904 6.947341,10.096229 4.031736,-0.420677 7.140956,-5.7644 7.824301,-9.152548 0.922516,-4.627439 -3.917845,-7.754086 -1.207243,-12.347415 z"
       id="path8-7"
       inkscape:connector-curvature="0"
       style="display:none;fill:#ffffff;fill-opacity:1;fill-rule:evenodd;stroke:none;stroke-width:5.68967533px;stroke-miterlimit:10"
       inkscape:label="butterfly" />
  </g>
</svg>
