<?xml version="1.0" encoding="UTF-8" standalone="no"?>
<!-- Created with Inkscape (http://www.inkscape.org/) -->

<svg
   width="210mm"
   height="200mm"
   viewBox="0 0 210 200"
   version="1.1"
   id="svg5"
   inkscape:version="1.1 (c68e22c387, 2021-05-23)"
   sodipodi:docname="icon_sets.svg"
   inkscape:export-filename="C:\flo\experiments\experiment-point-symbols\material\icon_sets.png"
   inkscape:export-xdpi="96.774002"
   inkscape:export-ydpi="96.774002"
   xmlns:inkscape="http://www.inkscape.org/namespaces/inkscape"
   xmlns:sodipodi="http://sodipodi.sourceforge.net/DTD/sodipodi-0.dtd"
   xmlns="http://www.w3.org/2000/svg"
   xmlns:svg="http://www.w3.org/2000/svg">
  <sodipodi:namedview
     id="namedview7"
     pagecolor="#ffffff"
     bordercolor="#666666"
     borderopacity="1.0"
     inkscape:pageshadow="2"
     inkscape:pageopacity="1"
     inkscape:pagecheckerboard="0"
     inkscape:document-units="mm"
     showgrid="false"
     inkscape:snap-global="false"
     inkscape:zoom="1.0932089"
     inkscape:cx="145.90075"
     inkscape:cy="236.91721"
     inkscape:window-width="1920"
     inkscape:window-height="1017"
     inkscape:window-x="679"
     inkscape:window-y="1046"
     inkscape:window-maximized="1"
     inkscape:current-layer="layer1"
     height="200mm" />
  <defs
     id="defs2" />
  <g
     inkscape:label="Layer 1"
     inkscape:groupmode="layer"
     id="layer1">
    <path
       id="path5"
       d="m 112.58587,41.115895 h -0.5412 c -0.1804,0 -0.1804,-0.180393 0,-0.180393 h 1.44317 c 0.18039,0 0.18039,0.180393 0,0.180393 h -0.54118 c 0,0 0.21648,0.156342 0.21648,0.517128 v 0.360812 h 1.5875 v 0.529167 l -1.5875,0.529167 -0.13229,1.322916 0.66146,0.348774 v 0.180393 h -1.85209 v -0.180393 l 0.66146,-0.348774 -0.13229,-1.322916 -1.5875,-0.529167 v -0.529167 h 1.5875 v -0.360786 c 0,-0.360812 0.21648,-0.517154 0.21648,-0.517154 z"
       style="stroke-width:0.264583" />
    <path
       id="path7712-0"
       d="m 114.75065,50.627933 v 0.444976 l -1.71979,-0.264583 -0.0842,1.262777 0.74565,0.457015 v 0.264583 l -0.92604,-0.180393 -0.92604,0.180393 v -0.264583 l 0.74564,-0.457015 -0.0842,-1.262777 -1.71979,0.264583 v -0.444976 l 1.71979,-0.613357 v -0.79375 c 0,0 0,-0.396875 0.26459,-0.396875 0.26458,0 0.26458,0.396875 0.26458,0.396875 v 0.745649 z"
       style="stroke-width:0.264583" />
    <path
       d="m 63.080799,82.925355 v -0.79375 c 0,0 -0.26459,-0.264583 -1.19063,-0.264583 -0.92604,0 -1.19062,0.264583 -1.19062,0.264583 v 0.79375 c 0.008,0.368168 0.0981,0.72988 0.26458,1.058334 0.1655,0.379624 0.1655,0.811001 0,1.190625 0,0 0,0.264583 0.92604,0.264583 0.92604,0 0.92604,-0.264583 0.92604,-0.264583 -0.16549,-0.379624 -0.16549,-0.811001 0,-1.190625 0.16653,-0.328454 0.25697,-0.690166 0.26459,-1.058334 z m -1.19063,2.248959 c -0.21076,0.0093 -0.42166,-0.01577 -0.62441,-0.07408 0.0537,-0.191135 0.0804,-0.388832 0.0794,-0.587375 h 1.09008 c -0.001,0.198543 0.0257,0.39624 0.0794,0.587375 -0.20275,0.05831 -0.41365,0.08334 -0.62442,0.07408 z m 0,-2.248959 c -0.3139,0.0079 -0.6269,-0.0368 -0.92604,-0.132291 v -0.529167 c 0.29925,-0.09496 0.61217,-0.139647 0.92604,-0.132292 0.31388,-0.0074 0.6268,0.03733 0.92604,0.132292 v 0.529167 c -0.29913,0.09549 -0.61214,0.140202 -0.92604,0.132291 z"
       id="path845"
       style="stroke-width:0.264583" />
    <path
       id="rect3335"
       d="m 26.457085,79.541401 -1.455209,2.38125 h -0.132291 c -0.264584,0 -0.264584,0.264583 -0.264584,0.264583 v 0.264584 c 0,0 0,0.264583 0.264584,0.264583 h 3.439583 c 0.264583,0 0.264583,-0.264583 0.264583,-0.264583 v -0.264584 c 0,0 0,-0.264583 -0.264583,-0.264583 h -0.132292 l -1.455208,-2.38125 c -0.05292,-0.105833 -0.211667,-0.105833 -0.264583,0 z m 0.132291,0.926042 0.846667,1.455208 h -1.719792 z"
       style="stroke-width:0.264583" />
    <path
       d="m 61.754649,60.882436 h -0.17992 l 0.32279,-2.23573 c 0.005,-0.07586 -0.0531,-0.141075 -0.12896,-0.145706 -0.006,-3.7e-4 -0.0128,-3.17e-4 -0.0192,1.86e-4 h -0.31221 c 0,-0.243417 -0.32544,-0.529167 -0.72761,-0.529167 -0.40216,0 -0.72495,0.28575 -0.72495,0.529167 h -0.32544 c -0.0759,-0.003 -0.13994,0.05601 -0.14301,0.131947 -1.8e-4,0.0045 -1.3e-4,0.009 1.4e-4,0.01357 l 0.3175,2.23573 h -0.17198 c -0.0765,-0.003 -0.14124,0.05588 -0.14552,0.132291 v 0.396875 h 2.38124 v -0.399521 c -0.004,-0.07496 -0.0679,-0.132662 -0.14287,-0.129645 z m -1.8415,-1.852084 h 1.5875 v 0.264584 h -1.5875 z"
       id="path860"
       style="stroke-width:0.264583" />
    <path
       d="m 62.691033,49.989826 v -0.39952 c -10e-4,-0.07202 -0.0602,-0.129673 -0.13229,-0.129646 -0.0745,0.0012 -0.13394,0.06263 -0.13269,0.13716 5e-5,0.0028 1.8e-4,0.0056 3.9e-4,0.0084 v 0.648229 c 0,0.146129 0.11846,0.264583 0.26459,0.264583 v 1.455208 c 0,0.07305 -0.0592,0.132292 -0.13229,0.132292 -0.0731,0 -0.1323,-0.05924 -0.1323,-0.132292 v -0.529165 c 0,-0.219181 -0.17769,-0.396875 -0.39687,-0.396875 h -0.39688 v -1.5875 c 0,-0.14613 -0.11845,-0.264584 -0.26458,-0.264584 h -1.5875 c -0.14613,0 -0.26458,0.118454 -0.26458,0.264584 v 2.910416 c 0,0.14613 0.11845,0.264584 0.26458,0.264584 h 1.5875 c 0.14613,0 0.26458,-0.118454 0.26458,-0.264584 v -1.058333 h 0.39688 c 0.073,0 0.13229,0.05924 0.13229,0.132292 v 0.529166 c 0,0.219181 0.17769,0.396875 0.39688,0.396875 0.21918,0 0.39687,-0.177694 0.39687,-0.396875 V 50.25441 c 0,-0.14613 -0.11845,-0.264584 -0.26458,-0.264584 z m -1.53448,0.899451 -0.68808,0.917417 -0.004,-0.0019 c -0.0123,0.02082 -0.0309,0.03712 -0.0568,0.03712 -0.0391,0 -0.0707,-0.03164 -0.0707,-0.0707 0,-0.0074 0.006,-0.01225 0.008,-0.01897 l -0.005,-0.0021 0.20548,-0.615024 c 0.0143,-0.04278 -0.0176,-0.087 -0.0627,-0.087 h -0.4376 c -0.0545,0 -0.0855,-0.06215 -0.0529,-0.105701 l 0.68808,-0.917417 0.004,0.0019 c 0.0123,-0.02082 0.0309,-0.03712 0.0568,-0.03712 0.0391,0 0.0707,0.03164 0.0707,0.0707 0,0.0074 -0.006,0.01225 -0.008,0.01897 l 0.005,0.0021 -0.20542,0.614998 c -0.0143,0.04281 0.0175,0.08702 0.0626,0.08702 h 0.4376 c 0.0545,0 0.0855,0.06215 0.0529,0.105701 z"
       id="path868"
       style="stroke-width:0.264583" />
    <path
       d="m 28.176871,35.346891 h -0.47625 l -0.92604,-2.778125 c -0.0529,-0.185208 -0.3175,-0.185208 -0.37041,0 l -0.92605,2.778125 h -0.47625 c -0.0794,0 -0.13229,0.05292 -0.13229,0.132292 v 0.264583 c 0,0.07938 0.0529,0.132292 0.13229,0.132292 h 3.175 c 0.0794,0 0.1323,-0.05292 0.1323,-0.132292 v -0.264583 c 0,-0.07938 -0.0529,-0.132292 -0.1323,-0.132292 z m -1.71979,-2.116667 h 0.26459 l 0.1852,0.529167 h -0.60854 z m -0.34396,1.058334 h 0.9525 l 0.18521,0.529166 h -1.32291 z"
       id="path876"
       style="stroke-width:0.264583" />
    <path
       d="m 61.632703,31.644324 h -1.85209 a 0.26458333,0.26458333 0 0 0 -0.26458,0.264583 v 2.910416 a 0.26458333,0.26458333 0 0 0 0.26458,0.264584 h 1.85209 a 0.26458333,0.26458333 0 0 0 0.26458,-0.264584 v -2.910416 a 0.26458333,0.26458333 0 0 0 -0.26458,-0.264583 z m -0.92604,3.042708 -0.52917,-1.058334 h 1.05833 z m -0.52917,-1.5875 0.52917,-1.058333 0.52916,1.058333 z"
       id="path884"
       style="stroke-width:0.264583" />
    <path
       d="m 62.691033,41.743138 v 0 1.455209 c 0,0.07305 -0.0592,0.132291 -0.13229,0.132291 -0.073,0 -0.13229,-0.05924 -0.13229,-0.132291 V 42.66918 c 0,-0.219181 -0.1777,-0.396875 -0.39688,-0.396875 h -0.39687 v -1.5875 c 0,-0.146129 -0.11846,-0.264583 -0.26459,-0.264583 h -1.5875 c -0.14613,0 -0.26458,0.118454 -0.26458,0.264583 v 2.910417 c 0,0.146129 0.11845,0.264583 0.26458,0.264583 h 1.5875 c 0.14613,0 0.26459,-0.118454 0.26459,-0.264583 v -1.058334 h 0.39687 c 0.073,0 0.13229,0.05924 0.13229,0.132292 v 0.529167 c 0,0.219181 0.1777,0.396875 0.39688,0.396875 0.21918,0 0.39687,-0.177694 0.39687,-0.396875 v -1.719792 c 0,-0.146129 -0.11845,-0.264583 -0.26458,-0.264583 v 0 -0.399521 c -10e-4,-0.07202 -0.0602,-0.129672 -0.13229,-0.129646 -0.0745,0.0012 -0.13393,0.06263 -0.13269,0.13716 5e-5,0.0028 1.8e-4,0.0056 4e-4,0.0084 v 0.648229 c 0,0.146129 0.11845,0.264583 0.26458,0.264583 0.14613,0 0.26458,-0.118454 0.26458,-0.264583 0,-0.146129 -0.11845,-0.264583 -0.26458,-0.264583 m -1.32292,0.661458 c 0,0.07305 -0.0592,0.132292 -0.13229,0.132292 h -1.32292 c -0.0731,0 -0.13229,-0.05924 -0.13229,-0.132292 v -0.79375 c 0,-0.07305 0.0592,-0.132292 0.13229,-0.132292 h 1.32292 c 0.073,0 0.13229,0.05924 0.13229,0.132292 z"
       id="path892"
       style="stroke-width:0.264583" />
    <path
       d="m 113.03091,59.395932 v -0.434446 a 0.13229167,0.13229167 0 0 0 -0.13229,-0.132292 h -0.26459 a 0.13229167,0.13229167 0 0 0 -0.13229,0.132292 v 0.434181 a 1.0559521,1.0559521 0 0 0 -0.78237,0.865717 0.13414375,0.13414375 0 0 0 0.13229,0.155046 h 1.83145 a 0.13414375,0.13414375 0 0 0 0.13229,-0.155046 1.0559521,1.0559521 0 0 0 -0.78449,-0.865452 z m 1.2274,-1.022086 -0.66146,-1.322916 a 0.13229167,0.13229167 0 0 0 -0.11827,-0.07382 h -1.42451 a 0.13229167,0.13229167 0 0 0 -0.11801,0.07303 l -0.66145,1.322917 a 0.13229167,0.13229167 0 0 0 0.11747,0.191558 h 2.168 v 0.396875 a 0.13229167,0.13229167 0 0 0 0.26458,0 v -0.396875 h 0.31591 a 0.13229167,0.13229167 0 0 0 0.11774,-0.190765 z"
       id="path900"
       style="stroke-width:0.264583" />
    <path
       id="rect4194"
       d="m 112.63397,33.311638 c -0.15875,0 -0.26458,0.10583 -0.26458,0.26458 v 1.05834 h -1.05833 c -0.15875,0 -0.26459,0.10583 -0.26459,0.26458 v 0.26458 c 0,0.15875 0.10584,0.26459 0.26459,0.26459 h 1.05833 v 1.05833 c 0,0.15875 0.10583,0.26458 0.26458,0.26458 h 0.26459 c 0.15875,0 0.26458,-0.10583 0.26458,-0.26458 v -1.05833 h 1.05833 c 0.15875,0 0.26459,-0.10584 0.26459,-0.26459 v -0.26458 c 0,-0.15875 -0.10584,-0.26458 -0.26459,-0.26458 h -1.05833 v -1.05834 c 0,-0.15875 -0.10583,-0.26458 -0.26458,-0.26458 z"
       style="stroke-width:0.264583" />
    <path
       id="path5571"
       d="m 26.589377,55.031909 c -0.07937,0 -0.105833,0.0529 -0.15875,0.10583 l -1.534583,2.51354 c -0.02646,0.0265 -0.02646,0.0794 -0.02646,0.10584 0,0.13229 0.105834,0.1852 0.185209,0.1852 h 3.069166 c 0.105834,0 0.185209,-0.0529 0.185209,-0.1852 0,-0.0529 0,-0.0529 -0.02646,-0.10584 l -1.508126,-2.51354 c -0.05292,-0.0529 -0.105833,-0.10583 -0.185209,-0.10583 z m 0,0.39687 0.873125,1.45521 h -0.211666 l -0.396875,-0.39687 -0.264584,0.39687 -0.264583,-0.39687 -0.396875,0.39687 h -0.238125 z"
       style="stroke-width:0.264583" />
    <path
       d="m 62.419339,90.950154 0.2831,-0.40745 c 0.0159,0.001 0.0318,0.001 0.0476,0 0.18267,-1.1e-4 0.33065,-0.14825 0.33057,-0.33089 -1e-4,-0.18267 -0.14824,-0.33068 -0.33091,-0.33057 -0.18264,1e-4 -0.33065,0.14824 -0.33054,0.33089 0,0.003 5e-5,0.007 1.6e-4,0.0104 0,0 0,0.0185 0,0.0265 l -0.66146,0.70114 z m 0.66145,0.529173 v -0.26458 h -2.38125 v 0.26458 l 0.39688,0.92604 -0.39688,0.92604 v 0.26459 h 2.38125 v -0.26459 l -0.26458,-0.92604 z m -0.52916,1.05833 h -0.52917 v 0.52917 h -0.26458 v -0.52917 h -0.52917 v -0.26458 h 0.52917 v -0.52917 h 0.26458 v 0.52917 h 0.52917 z"
       id="path922"
       style="stroke-width:0.264583" />
    <path
       id="path9064"
       d="m 26.589376,39.877888 -0.529167,0.52917 v 0.52916 h 1.058334 v -0.52916 z m -0.529167,1.19062 -0.396875,0.39688 h 1.852084 l -0.396875,-0.39688 z m -0.926041,0.52917 c -0.146129,0 -0.264583,0.11845 -0.264583,0.26458 v 1.455212 h 0.529166 v -1.455212 c 0,-0.14613 -0.118454,-0.26458 -0.264583,-0.26458 z m 0.529166,0 v 1.719792 h 1.852084 v -1.719792 z m 2.38125,0 c -0.146129,0 -0.264583,0.11845 -0.264583,0.26458 v 1.455212 h 0.529167 v -1.455212 c 0,-0.14613 -0.118454,-0.26458 -0.264584,-0.26458 z"
       style="stroke-width:0.264583" />
    <path
       id="rect3607"
       d="m 72.203939,89.821613 v 3.439584 h 2.24895 v -3.439584 z m 1.5875,0.264583 h 0.39687 v 0.926042 h -0.39687 z m -1.32292,0.01447 h 0.39687 v 1.308441 h -0.39687 z m 0.66146,0 h 0.39687 v 1.308441 h -0.39687 z m 0.85989,1.176151 c 0.10959,0 0.19844,0.0889 0.19844,0.19844 0,0.10959 -0.0888,0.19844 -0.19844,0.19844 v 0 c -0.10959,0 -0.19843,-0.0889 -0.19843,-0.19844 v 0 c 0,-0.10959 0.0888,-0.19844 0.19843,-0.19844 z m -0.85989,0.39688 h 0.38965 l 0.007,1.32291 h -0.38965 z m -0.66146,0.0439 h 0.39687 v 1.27899 h -0.39687 z m 1.32292,0.22066 h 0.39687 v 1.05833 h -0.39687 z"
       style="stroke-width:0.264583" />
    <path
       d="m 114.75064,67.77584 h -1.38113 l -0.60325,0.79375 -0.59795,-0.79375 h -1.38642 l 0.71437,-1.058334 -0.71437,-1.058333 h 1.40229 l 0.58208,-1.058333 0.61913,1.058333 h 1.36525 l -0.67733,1.058333 z"
       id="path944"
       style="stroke-width:0.264583" />
    <path
       d="m 153.24968,45.803806 h -1.38113 l -0.60325,0.79375 -0.59796,-0.79375 h -1.38641 l 0.71437,-1.058334 -0.71437,-1.058333 h 1.40229 l 0.58208,-1.058333 0.61913,1.058333 h 1.36525 l -0.67734,1.058333 z"
       id="path944-4"
       style="stroke-width:0.264583" />
    <path
       d="m 27.42307,86.417942 a 0.06641042,0.06641042 0 0 0 -0.08308,0 l -0.593989,0.478366 a 0.06535208,0.06535208 0 0 0 -0.02434,0.05106 v 1.223698 a 0.06693958,0.06693958 0 0 0 0.06694,0.06694 h 0.395287 a 0.06693958,0.06693958 0 0 0 0.06694,-0.06694 v 0 -0.462227 h 0.264584 v 0.462227 a 0.06693958,0.06693958 0 0 0 0.06694,0.06694 h 0.395287 a 0.06693958,0.06693958 0 0 0 0.06694,-0.06694 v 0 -1.224227 a 0.06614583,0.06614583 0 0 0 -0.02487,-0.05292 z m -0.172243,1.026318 h -0.264584 v -0.264583 h 0.264584 z m 0.529166,0 H 27.51541 v -0.264583 h 0.264583 z m -1.664229,-2.430198 a 0.066675,0.066675 0 0 0 -0.111125,0 l -0.859366,1.090348 a 0.066675,0.066675 0 0 0 -0.01111,0.03704 v 2.029619 a 0.066675,0.066675 0 0 0 0.06641,0.06694 h 0.661459 a 0.066675,0.066675 0 0 0 0.06588,-0.06668 v -0.462492 h 0.264583 v 0.462491 a 0.066675,0.066675 0 0 0 0.06667,0.06668 h 0.197909 v -1.5875 a 0.13229167,0.13229167 0 0 1 0.04974,-0.103452 l 0.479425,-0.425714 c 0,-0.01323 -0.870479,-1.107282 -0.870479,-1.107282 z m -0.452437,2.165615 h -0.264584 v -0.264583 h 0.264584 z m 0,-0.79375 h -0.264584 v -0.264583 h 0.264584 z m 0.529166,0.79375 H 25.92791 v -0.264583 h 0.264583 z m 0,-0.79375 H 25.92791 v -0.264583 h 0.264583 z"
       id="path952"
       style="stroke-width:0.264583" />
    <path
       id="path21090-9"
       d="m 26.599565,47.587187 c -0.078,0 -0.129196,0.04688 -0.162824,0.101759 l -1.546807,2.523728 c -0.02035,0.02035 -0.02035,0.06104 -0.02035,0.101759 0,0.142478 0.101759,0.183171 0.183171,0.183171 h 3.073241 c 0.101759,0 0.183172,-0.04069 0.183172,-0.183171 0,-0.04069 0,-0.06107 -0.02035,-0.101759 l -1.526461,-2.523728 c -0.03328,-0.05506 -0.09673,-0.101759 -0.162798,-0.101759 z"
       style="stroke-width:0.264583" />
    <path
       id="path6447"
       d="m 26.849829,62.344376 c -0.03874,0.0013 -0.07501,0.01934 -0.09922,0.04961 l -0.439261,0.548798 -0.424762,-0.403066 c -0.115331,-0.106124 -0.286781,0.04088 -0.199469,0.171053 l 0.440796,0.635106 c 0.05062,0.07292 0.157268,0.07628 0.212381,0.0067 0.044,-0.05554 0.116787,-0.179334 0.249079,-0.179334 0.132291,0 0.209788,0.129831 0.249078,0.179308 0.0463,0.05831 0.131578,0.06697 0.188622,0.01913 l 0.441325,-0.370522 c 0.116628,-0.09898 1.59e-4,-0.28403 -0.139515,-0.221694 l -0.342635,0.154014 v -0.45683 c 5.3e-5,-0.07469 -0.06175,-0.134594 -0.13642,-0.132292 z m -0.921914,1.322917 -0.773588,1.567339 c -0.02035,0.02035 -0.02016,0.06112 -0.02016,0.101811 0,0.142479 0.101521,0.182933 0.182933,0.182933 h 2.544551 c 0.101759,0 0.182933,-0.04048 0.182933,-0.182933 0,-0.04069 2.12e-4,-0.06109 -0.02016,-0.101811 l -0.773589,-1.567339 c -0.132292,0 -0.264583,0.132292 -0.264583,0.264583 v 0.132292 c 0,0.07329 -0.059,0.132292 -0.132292,0.132292 -0.07329,0 -0.132292,-0.059 -0.132292,-0.132292 v -0.132292 c 0,-0.07305 -0.05921,-0.132291 -0.132291,-0.132291 -0.07308,0 -0.132292,0.05924 -0.132292,0.132291 v 0.529167 c 0,0.07329 -0.059,0.132292 -0.132292,0.132292 -0.07329,0 -0.132291,-0.059 -0.132291,-0.132292 v -0.529167 c 0,-0.132291 -0.132292,-0.264583 -0.264584,-0.264583 z"
       style="stroke-width:0.264583" />
    <path
       d="m 62.270353,67.961023 -0.35454,2.116667 c -0.0115,0.06265 -0.066,0.108241 -0.12965,0.108479 h -1.62983 c -0.0637,-2.38e-4 -0.11819,-0.04583 -0.12965,-0.108479 l -0.35454,-2.116667 c -0.0117,-0.07212 0.0373,-0.140071 0.1094,-0.151765 0.007,-0.0011 0.0135,-0.0016 0.0202,-0.0017 h 2.33628 c 0.073,-9.53e-4 0.13303,0.05752 0.13398,0.130572 1.1e-4,0.0077 -4.8e-4,0.01532 -0.002,0.02289 z m 0.1561,-0.550333 c 0,0.07305 -0.0592,0.132291 -0.13229,0.132291 h -2.64583 c -0.073,0 -0.1323,-0.05924 -0.1323,-0.132291 0,-0.07305 0.0592,-0.132292 0.1323,-0.132292 h 0.66145 v -0.396875 c 0,-0.07305 0.0592,-0.132292 0.1323,-0.132292 h 1.05833 c 0.073,0 0.13229,0.05924 0.13229,0.132292 v 0.396875 h 0.66146 c 0.073,0 0.13229,0.05924 0.13229,0.132292 z m -1.05833,-0.132292 v -0.264583 h -0.79375 v 0.264583 z"
       id="path974"
       style="stroke-width:0.264583" />
    <path
       id="path4133"
       d="m 72.933999,81.471372 c -0.64357,0 -1.39443,0.393304 -1.39443,1.394434 0,0.679318 1.07264,2.181013 1.39443,2.574316 0.28604,-0.393303 1.39443,-1.859227 1.39443,-2.574316 0,-1.00113 -0.75086,-1.394434 -1.39443,-1.394434 z"
       style="stroke-width:0.264583" />
    <g
       id="g1000"
       transform="matrix(0.26458333,0,0,0.26458333,22.1354,134.69367)">
      <polygon
         points="9,13 9,22 13,22 13,13 14,13 14,5 13,5 13,4 9,4 9,5 8,5 8,13 "
         id="polygon989" />
      <circle
         cx="11"
         cy="1.8"
         r="1.8"
         id="circle991" />
    </g>
    <polygon
       points="6,18 6,19 5,19 5,22 17,22 17,19 16,19 16,18 14.3,18 13.3,2.6 11,0 8.7,2.6 7.7,18 "
       id="polygon1002"
       transform="matrix(0.26458333,0,0,0.26458333,22.1354,122.71309)" />
    <g
       id="g1014"
       transform="matrix(0.26458333,0,0,0.26458333,22.1354,158.65482)">
      <polygon
         points="6,16 7,16 7,21 5,21 5,22 17,22 17,21 15,21 15,16 16,16 16,15 13,15 13,10 14,10 14,5 13,5 13,4 9,4 9,5 8,5 8,10 9,10 9,15 6,15 "
         id="polygon1010" />
      <circle
         cx="11"
         cy="2"
         r="2"
         id="circle1012" />
    </g>
    <polygon
       points="10,4 7,7 10,7 6,11 9,11 5,15 9,15 4,18 10,18 10,22 12,22 12,18 18,18 13,15 17,15 13,11 16,11 12,7 15,7 12,4 14,4 11,0 8,4 "
       id="polygon1024"
       transform="matrix(0.26458333,0,0,0.26458333,22.1354,170.6354)" />
    <g
       id="g1043"
       transform="matrix(0.26458333,0,0,0.26458333,22.1354,146.67425)">
      <polygon
         points="9,17 9,22 13,22 13,17 16,17 14,10 14,5 13,5 13,4 9,4 9,5 8,5 8,10 6,17 "
         id="polygon1032" />
      <circle
         cx="11"
         cy="1.8"
         r="1.8"
         id="circle1034" />
    </g>
    <path
       id="rect239-1"
       d="m 156.2055,181.14631 v 0.50453 h 0.70399 v -0.50453 z m 1.37838,0 v 0.50453 h 0.70509 v -0.50453 z m 0,0.66247 v 1.39292 c 0,0.0668 0.0538,0.12065 0.12062,0.12065 h 0.009 0.11185 v 1.35015 c 0,0.0646 0.0528,0.11736 0.11733,0.11736 h 1.03516 c 0.0646,0 0.11733,-0.0528 0.11733,-0.11736 v -0.84014 l 0.002,-0.12284 -0.44849,-1.90074 z m -1.74134,0.002 -0.44959,1.90075 0.002,0.12393 v 0.84015 c 0,0.0646 0.0528,0.11736 0.11733,0.11736 h 1.03516 c 0.0657,0 0.11843,-0.0528 0.11843,-0.11736 v -1.34906 h 0.11075 0.009 c 0.0668,0 0.12062,-0.0549 0.12062,-0.12174 v -1.39403 z m 1.21938,0 v 1.29531 h 0.36515 v -1.29531 z"
       style="fill:#010101;stroke-width:0.561499" />
    <g
       id="g1061"
       transform="matrix(0.26458333,0,0,0.26458333,155.39298,125.5041)">
      <rect
         style="visibility:hidden;fill:none;stroke:none"
         id="canvas"
         y="0"
         x="0"
         height="14"
         width="14" />
      <path
         id="path824"
         d="M 1,1 0,2.5 V 3 H 5 V 2.5 L 4,1 Z M 10,1 9,2.5 V 3 h 5 V 2.5 L 13,1 Z M 0,4 v 9 h 5 c 0,-1 0,-3 2,-3 2,0 2,2 2,3 h 5 V 4 H 9 V 6 H 7 5 V 4 Z M 2,6 H 3 V 7 L 2.5,8 2,7 Z m 9,0 h 1 V 7 L 11.5,8 11,7 Z"
         style="fill:#000000;fill-opacity:1;stroke:none" />
    </g>
    <g
       id="g1072"
       transform="matrix(0.26458333,0,0,0.26458333,155.39298,135.36466)">
      <rect
         width="14"
         height="14"
         x="0"
         y="0"
         id="canvas-7"
         style="visibility:hidden;fill:none;stroke:none" />
      <path
         d="M 0,1 V 4 H 14 V 1 H 12 V 3 H 10 V 1 H 8 V 3 H 6 V 1 H 4 V 3 H 2 V 1 Z m 0,4 v 8 H 2.5 C 2.5,10 3.487647,6.5 7,6.5 10.404489,6.473034 11.5,10 11.5,13 H 14 V 5 Z M 7,8 C 5,8 4,10 4,13 h 6 C 10,10 9,8 7,8 Z"
         id="city-gate"
         style="fill:#000000;fill-opacity:1;stroke:none" />
    </g>
    <g
       id="g1083"
       transform="matrix(0.26458333,0,0,0.26458333,155.39298,145.22522)">
      <rect
         width="14"
         height="14"
         x="0"
         y="0"
         id="canvas-8"
         style="visibility:hidden;fill:none;stroke:none" />
      <path
         id="fort"
         d="M 1,1 V 3 H 6 V 1 H 5 V 2 H 4 V 1 H 3 V 2 H 2 V 1 Z m 7,0 v 2 h 5 V 1 H 12 V 2 H 11 V 1 H 10 V 2 H 9 V 1 Z M 1,4 v 6 H 13 V 4 H 8 V 6 H 6 V 4 Z M 3,6 H 4 V 7 L 3.5,8 3,7 Z m 7,0 h 1 V 7 L 10.5,8 10,7 Z m -9,5 -1,3 h 14 l -1,-3 z"
         style="fill:#000000;fill-opacity:1;stroke:none" />
    </g>
    <g
       id="g1094"
       transform="matrix(0.26458333,0,0,0.26458333,155.39298,155.08578)">
      <rect
         style="visibility:hidden;fill:none;stroke:none"
         id="canvas-3"
         y="0"
         x="0"
         height="14"
         width="14" />
      <path
         d="M 6,13 H 8 C 8,12 8,10 7,10 6,10 6,12 6,13 Z M 0,1 V 3 H 5 V 1 H 4 V 2 H 3 V 1 H 2 V 2 H 1 V 1 Z m 9,0 v 2 h 5 V 1 H 13 V 2 H 12 V 1 H 11 V 2 H 10 V 1 Z M 0,4 v 9 h 5 c 0,-1 0,-4 2,-4 2,0 2,3 2,4 h 5 V 4 H 9 V 6 H 7 5 V 4 Z M 2,6 H 3 V 7 L 2.5,8 2,7 Z m 9,0 h 1 V 7 L 11.5,8 11,7 Z"
         style="opacity:1;fill:#000000;fill-opacity:1;fill-rule:nonzero;stroke:none;stroke-opacity:1"
         id="fortress" />
    </g>
    <g
       id="g1105"
       transform="matrix(0.26458333,0,0,0.26458333,155.39298,164.94634)">
      <rect
         width="14"
         height="14"
         x="0"
         y="0"
         id="canvas-1"
         style="visibility:hidden;fill:none;stroke:none" />
      <path
         id="palace"
         style="fill:#000000;fill-opacity:1;stroke:none;stroke-width:0.774597"
         d="M 12,2 11,3.5 V 4 h 3 V 3.5 L 13,2 Z M 1,2 0,3.5 V 4 H 3 V 3.5 L 2,2 Z m 3,2 h 6 V 3 L 7,0 4,3 Z M 0,5 v 8 h 5 c 0,-1 0,-3 2,-3 2,0 2,2 2,3 h 5 V 5 H 11.018051 L 11,6 H 10 L 10.03249,5 H 4.0433213 L 4,6 H 3 V 5 Z m 3,3 c 1,0 1,1 1,2 H 2 C 2,9 2,8 3,8 Z m 8,0 c 1,0 1,0.7301391 1,2 l -2,0.02539 C 9.9645368,8.7473493 10,8 11,8 Z" />
    </g>
    <g
       id="g1173"
       transform="matrix(0.26458333,0,0,0.26458333,67.276682,121.00612)">
      <path
         d="M 3,0 V 4 H 19 V 0 Z M 6,3 H 4 V 1 h 2 z m 4,0 H 8 V 1 h 2 z"
         id="path1159" />
      <path
         d="M 3,5 V 22 H 19 V 5 Z m 8,14 C 7.7,19 5,16.3 5,13 5,9.7 7.7,7 11,7 c 3.3,0 6,2.7 6,6 0,3.3 -2.7,6 -6,6 z"
         id="path1161" />
      <path
         d="m 6.5,11 c -0.6,-0.4 -0.4,1.3 -0.4,2 0,2.7 2.2,4.9 4.9,4.9 2.7,0 4.9,-2.2 4.9,-4.9 0,-0.7 0.1,-1.6 -0.4,-2 -5.3,-4.3 -3.6,3.7 -9,0 z"
         id="path1163" />
    </g>
    <path
       d="m 71.245434,155.10079 v -1.05833 h -2.11667 v 1.05833 c -0.55562,0.10583 -1.05833,0.60854 -1.05833,1.16417 v 1.85208 c 0,0.58208 0.42333,1.05833 0.97896,1.16417 v 0.58208 h 2.27541 v -0.58208 c 0.55563,-0.10584 0.97896,-0.58209 0.97896,-1.16417 v -1.85208 c 0,-0.55563 -0.50271,-1.05834 -1.05833,-1.16417 z m -0.79375,-0.79375 h 0.52917 v 0.79375 h -0.52917 z m -1.05833,0 h 0.52916 v 0.79375 h -0.52916 z m 1.32291,3.33375 c -0.13229,0.21167 -0.58208,0.44979 -0.44979,0.92604 h -0.29104 c -0.21167,-0.23812 -0.92604,-1.03187 -0.34396,-1.5875 0.58208,-0.52916 0.66146,-0.97896 0.44979,-1.19062 0.0265,0 1.48167,0.55562 0.635,1.85208 z"
       id="path1175"
       style="stroke-width:0.264583" />
    <path
       d="m 71.245434,144.08869 v -1.05833 h -2.11667 v 1.05833 c -0.55563,0.10584 -1.05833,0.60855 -1.05833,1.16417 v 1.85208 c 0,0.58209 0.42333,1.05834 0.97895,1.16417 v 0.58208 h 2.27542 v -0.58208 c 0.55563,-0.10583 0.97896,-0.58208 0.97896,-1.16417 v -1.85208 c 0,-0.55562 -0.50271,-1.05833 -1.05833,-1.16417 z m -0.79375,-0.79375 h 0.52916 v 0.79375 h -0.52916 z m -1.05834,0 h 0.52917 v 0.79375 h -0.52917 z m 0.52917,3.96875 h -0.79375 l -0.39688,-0.66145 0.34396,-0.60855 -0.26458,-0.15875 0.58208,0.0265 0.3175,0.50271 -0.21166,-0.10583 -0.18521,0.34396 0.13229,0.13229 h 0.47625 z m -0.10583,-1.48166 -0.42334,-0.29104 0.39688,-0.68792 h 0.79375 l 0.37041,0.66146 0.26459,-0.15875 -0.3175,0.50271 -0.58209,0.0265 0.18521,-0.10584 -0.23812,-0.39687 h -0.18521 z m 1.4552,1.48166 h -0.8202 v 0.26459 l -0.26459,-0.52917 0.26459,-0.52917 v 0.26459 h 0.5027 l 0.0794,-0.13229 -0.23812,-0.39688 0.42333,-0.29104 0.42334,0.71437 z"
       id="path1183"
       style="stroke-width:0.264583" />
    <g
       id="g1208"
       transform="matrix(0.26458333,0,0,0.26458333,67.276682,132.01823)">
      <path
         d="M 20,3.1 18.1,0.9 c 0,0 -1.2,0.2 -2.2,0 C 14.9,0.7 14.1,0 14.1,0 H 11 7.9 C 7.9,0 7,0.8 6,0.9 5,1 3.8,0.9 3.8,0.9 L 2,3.1 C 2,3.1 2.5,3.6 2.8,4 3,4.3 3,4.6 3,5 H 19 C 19,4.6 19,4.3 19.2,4 19.5,3.6 20,3.1 20,3.1 Z"
         id="path1191" />
      <path
         d="m 3,8 c 0,2.3 0,5.7 0,7.2 0,2 0.9,2.9 1.8,3.7 0.9,0.8 4.6,2.3 4.6,2.3 L 11,22 12.5,21.2 c 0,0 3.7,-1.5 4.6,-2.3 0.9,-0.8 1.8,-1.7 1.8,-3.7 0,-1.4 0,-4.9 0,-7.2 z m 8,11 C 8.2,19 6,16.8 6,14 6,11.2 8.2,9 11,9 c 2.8,0 5,2.2 5,5 0,2.8 -2.2,5 -5,5 z"
         id="path1193" />
      <circle
         cx="11"
         cy="14"
         r="4"
         id="circle1195" />
      <rect
         x="3"
         y="6"
         width="16"
         height="1"
         id="rect1197" />
    </g>
    <g
       id="g1227"
       transform="matrix(0.26458333,0,0,0.26458333,67.276682,165.05458)">
      <path
         d="M 6.7,1.6 H 6.5 V 2.8 H 6.8 C 7.2,2.8 7.5,2.7 7.5,2.2 7.4,1.8 7.1,1.6 6.7,1.6 Z"
         id="path1210" />
      <path
         d="m 9.4,4 c 0,0.2 0.2,0.3 0.5,0.3 0.2,0 0.4,-0.1 0.5,-0.2 0.1,-0.2 0.2,-0.4 0.2,-0.6 H 10.3 C 9.8,3.5 9.4,3.6 9.4,4 Z"
         id="path1212" />
      <path
         d="M 4,0 V 7 H 18 V 0 Z M 6.8,3.4 H 6.5 V 4.8 H 5.7 V 1 h 1 C 7.5,1 8.3,1.2 8.3,2.1 8.2,3.1 7.6,3.4 6.8,3.4 Z m 3.7,1.4 c 0,-0.1 0,-0.3 0,-0.4 v 0 C 10.3,4.7 10,4.9 9.6,4.9 9.1,4.9 8.6,4.6 8.6,4.1 8.6,3.7 8.8,3.4 9.1,3.3 9.4,3.2 9.7,3.1 10,3.1 h 0.4 C 10.4,2.7 10.2,2.5 9.8,2.5 9.5,2.5 9.2,2.6 9,2.8 V 2.2 C 9.2,2 9.6,2 9.9,2 c 0.8,0 1.2,0.4 1.2,1.2 v 0.4 c 0,0.3 0,0.5 0,0.7 0,0.2 0,0.4 0,0.6 h -0.6 z m 2.2,0.1 c -0.3,0 -0.6,0 -0.8,-0.1 V 4.2 c 0.2,0.1 0.5,0.2 0.7,0.2 0.2,0 0.5,-0.1 0.5,-0.3 0,-0.5 -1.3,-0.2 -1.3,-1.2 0,-0.6 0.5,-0.9 1.1,-0.9 0.3,0 0.6,0.1 0.8,0.1 V 2.6 C 13.5,2.5 13.3,2.5 13.1,2.5 12.9,2.5 12.7,2.6 12.7,2.8 12.7,3.2 14,3 14,4 13.8,4.6 13.2,4.9 12.7,4.9 Z m 2.5,0 c -0.3,0 -0.6,0 -0.8,-0.1 V 4.2 c 0.2,0.1 0.5,0.2 0.7,0.2 0.2,0 0.5,-0.1 0.5,-0.3 0,-0.5 -1.3,-0.2 -1.3,-1.2 0,-0.6 0.5,-0.9 1.1,-0.9 0.4,0 0.6,0 0.8,0.1 V 2.6 C 16,2.5 15.8,2.5 15.6,2.5 c -0.2,0 -0.4,0.1 -0.4,0.3 0,0.4 1.3,0.2 1.3,1.2 -0.1,0.6 -0.7,0.9 -1.3,0.9 z"
         id="path1214" />
      <path
         d="M 4,8 V 22 H 18 V 8 Z M 16,20 H 6 v -1 h 10 z m 0,-3 H 6 v -1 h 10 z m 0,-3 H 6 v -1 h 10 z m 0,-3 H 6 v -1 h 10 z"
         id="path1216" />
    </g>
    <path
       d="m 159.61349,54.051296 c -0.63151,-1.216157 0.96043,-2.026947 1.5748,-0.810789 0.61423,-1.216158 2.20628,-0.405395 1.57488,0.810789 -0.023,0.04421 -0.0537,0.09144 -0.0824,0.137901 h -0.47834 l -0.48009,-0.72009 a 0.1654175,0.1654175 0 0 0 -0.29117,0.03035 l -0.43614,1.090084 -0.3519,-0.351896 a 0.16547042,0.16547042 0 0 0 -0.11684,-0.04842 h -0.8305 c -0.0287,-0.04649 -0.0594,-0.09372 -0.0823,-0.137927 z m 2.50031,0.468656 a 0.16570854,0.16570854 0 0 1 -0.13772,-0.07363 l -0.35475,-0.532104 -0.41241,1.031029 a 0.16523229,0.16523229 0 0 1 -0.12028,0.100541 0.15999354,0.15999354 0 0 1 -0.0332,0.0033 0.16539104,0.16539104 0 0 1 -0.11691,-0.04831 l -0.48073,-0.480854 h -0.53059 a 11.289771,11.289771 0 0 0 1.18004,1.236451 0.12281958,0.12281958 0 0 0 0.16462,0 11.445875,11.445875 0 0 0 1.17753,-1.236451 z"
       id="path1229"
       style="stroke-width:0.264583" />
    <path
       id="rect4181-0-0"
       d="m 150.20695,61.932649 -0.92604,0.79375 v 0.79375 h 0.76729 l 0.0265,1.852083 h 2.38125 v -1.852083 h 0.79375 v -0.79375 l -0.92604,-0.79375 h -0.39687 l -0.66146,1.058333 -0.66146,-1.058333 z"
       style="stroke-width:0.264583" />
    <path
       d="m 152.96128,53.958158 c -0.30957,0.595312 -1.13771,1.404937 -1.60602,1.836208 -0.0504,0.04545 -0.12693,0.04545 -0.17728,0 -0.47095,-0.431271 -1.2991,-1.240896 -1.60866,-1.836208 -0.67998,-1.309688 1.03452,-2.182813 1.69598,-0.873125 0.66146,-1.309688 2.37596,-0.436563 1.69598,0.873125 z"
       id="path1244"
       style="stroke-width:0.264583" />
    <path
       d="m 152.98509,35.093552 c 0,0.949827 -0.76996,1.719791 -1.71979,1.719791 -0.94983,0 -1.71979,-0.769964 -1.71979,-1.719791 0,-0.949828 0.76996,-1.719792 1.71979,-1.719792 0.94983,0 1.71979,0.769964 1.71979,1.719792 z"
       id="path1252"
       style="stroke-width:0.264583" />
    <path
       style="fill:none;fill-rule:evenodd;stroke:#000000;stroke-width:0.264583px;stroke-linecap:butt;stroke-linejoin:miter;stroke-opacity:1"
       d="M 20.054715,72.365321 H 33.124038"
       id="path1461" />
    <path
       style="fill:none;fill-rule:evenodd;stroke:#000000;stroke-width:0.264583px;stroke-linecap:butt;stroke-linejoin:miter;stroke-opacity:1"
       d="M 55.181583,75.269616 H 77.931884"
       id="path1576" />
    <path
       style="fill:none;fill-rule:evenodd;stroke:#000000;stroke-width:0.264583px;stroke-linecap:butt;stroke-linejoin:miter;stroke-opacity:1"
       d="m 95.115621,27.590792 v 58.81195"
       id="path1578" />
    <path
       style="fill:none;fill-rule:evenodd;stroke:#000000;stroke-width:0.264583px;stroke-linecap:butt;stroke-linejoin:miter;stroke-opacity:1"
       d="m 53.971459,116.89783 v 66.79875"
       id="path1580" />
    <path
       style="fill:none;fill-rule:evenodd;stroke:#000000;stroke-width:0.264583px;stroke-linecap:butt;stroke-linejoin:miter;stroke-opacity:1"
       d="m 144.2466,174.0156 h 31.22116"
       id="path1582" />
    <text
       xml:space="preserve"
       style="font-size:3px;line-height:125%;font-family:Arial;-inkscape-font-specification:'Arial, Normal';font-variant-ligatures:none;letter-spacing:0px;word-spacing:0px;fill:#010101;fill-opacity:1;stroke:none;stroke-width:0.264583px;stroke-linecap:butt;stroke-linejoin:miter;stroke-opacity:1"
       x="103.10242"
       y="81.078209"
       id="text4406"><tspan
         sodipodi:role="line"
         id="tspan4404"
         style="font-size:3px;fill:#010101;fill-opacity:1;stroke:none;stroke-width:0.264583px"
         x="103.10242"
         y="81.078209">Not enough similars</tspan></text>
    <text
       xml:space="preserve"
       style="font-size:4.23333px;line-height:125%;font-family:Arial;-inkscape-font-specification:'Arial, Normal';font-variant-ligatures:none;letter-spacing:0px;word-spacing:0px;fill:#010101;fill-opacity:1;stroke:none;stroke-width:0.264583px;stroke-linecap:butt;stroke-linejoin:miter;stroke-opacity:1"
       x="14.036271"
       y="16.489649"
       id="text4406-8"><tspan
         sodipodi:role="line"
         id="tspan4404-5"
         style="font-style:normal;font-variant:normal;font-weight:bold;font-stretch:normal;font-size:4.23333px;font-family:Arial;-inkscape-font-specification:'Arial Bold';fill:#010101;fill-opacity:1;stroke:none;stroke-width:0.264583px"
         x="14.036271"
         y="16.489649">Maki</tspan></text>
    <text
       xml:space="preserve"
       style="font-size:4.23333px;line-height:125%;font-family:Arial;-inkscape-font-specification:'Arial, Normal';font-variant-ligatures:none;letter-spacing:0px;word-spacing:0px;fill:#010101;fill-opacity:1;stroke:none;stroke-width:0.264583px;stroke-linecap:butt;stroke-linejoin:miter;stroke-opacity:1"
       x="70.801857"
       y="8.509057"
       id="text4406-8-4"><tspan
         sodipodi:role="line"
         id="tspan4404-5-81"
         style="font-style:normal;font-variant:normal;font-weight:bold;font-stretch:normal;font-size:4.23333px;font-family:Arial;-inkscape-font-specification:'Arial Bold';fill:#010101;fill-opacity:1;stroke:none;stroke-width:0.264583px"
         x="70.801857"
         y="8.509057">Candidate Icon Sets for 2nd Study</tspan></text>
    <text
       xml:space="preserve"
       style="font-size:4.23333px;line-height:125%;font-family:Arial;-inkscape-font-specification:'Arial, Normal';font-variant-ligatures:none;letter-spacing:0px;word-spacing:0px;fill:#010101;fill-opacity:1;stroke:none;stroke-width:0.264583px;stroke-linecap:butt;stroke-linejoin:miter;stroke-opacity:1"
       x="15.378247"
       y="107.01302"
       id="text4406-8-9"><tspan
         sodipodi:role="line"
         id="tspan4404-5-8"
         style="font-style:normal;font-variant:normal;font-weight:bold;font-stretch:normal;font-size:4.23333px;font-family:Arial;-inkscape-font-specification:'Arial Bold';fill:#010101;fill-opacity:1;stroke:none;stroke-width:0.264583px"
         x="15.378247"
         y="107.01302">NPS</tspan></text>
    <text
       xml:space="preserve"
       style="font-size:3px;line-height:125%;font-family:Arial;-inkscape-font-specification:'Arial, Normal';font-variant-ligatures:none;letter-spacing:0px;word-spacing:0px;fill:#010101;fill-opacity:1;stroke:none;stroke-width:0.264583px;stroke-linecap:butt;stroke-linejoin:miter;stroke-opacity:1"
       x="17.153543"
       y="23.322407"
       id="text4406-8-6"><tspan
         sodipodi:role="line"
         id="tspan4404-5-5"
         style="font-size:3px;fill:#010101;fill-opacity:1;stroke:none;stroke-width:0.264583px"
         x="17.153543"
         y="23.322407">&quot;Triangular&quot;</tspan></text>
    <text
       xml:space="preserve"
       style="font-size:3px;line-height:125%;font-family:Arial;-inkscape-font-specification:'Arial, Normal';font-variant-ligatures:none;letter-spacing:0px;word-spacing:0px;fill:#010101;fill-opacity:1;stroke:none;stroke-width:0.264583px;stroke-linecap:butt;stroke-linejoin:miter;stroke-opacity:1"
       x="17.167782"
       y="114.75159"
       id="text4406-8-6-6"><tspan
         sodipodi:role="line"
         id="tspan4404-5-5-45"
         style="font-size:3px;fill:#010101;fill-opacity:1;stroke:none;stroke-width:0.264583px"
         x="17.167782"
         y="114.75159">&quot;Vertical&quot;</tspan></text>
    <text
       xml:space="preserve"
       style="font-size:3px;line-height:125%;font-family:Arial;-inkscape-font-specification:'Arial, Normal';font-variant-ligatures:none;letter-spacing:0px;word-spacing:0px;fill:#010101;fill-opacity:1;stroke:none;stroke-width:0.264583px;stroke-linecap:butt;stroke-linejoin:miter;stroke-opacity:1"
       x="151.3335"
       y="117.95399"
       id="text4406-8-6-6-6"><tspan
         sodipodi:role="line"
         id="tspan4404-5-5-45-5"
         style="font-size:3px;fill:#010101;fill-opacity:1;stroke:none;stroke-width:0.264583px"
         x="151.3335"
         y="117.95399">&quot;Castles&quot;</tspan></text>
    <text
       xml:space="preserve"
       style="font-size:3px;line-height:125%;font-family:Arial;-inkscape-font-specification:'Arial, Normal';font-variant-ligatures:none;letter-spacing:0px;word-spacing:0px;fill:#010101;fill-opacity:1;stroke:none;stroke-width:0.264583px;stroke-linecap:butt;stroke-linejoin:miter;stroke-opacity:1"
       x="54.439556"
       y="23.266335"
       id="text4406-8-6-2"><tspan
         sodipodi:role="line"
         id="tspan4404-5-5-4"
         style="font-size:3px;fill:#010101;fill-opacity:1;stroke:none;stroke-width:0.264583px"
         x="54.439556"
         y="23.266335">&quot;Rectangular&quot;</tspan></text>
    <text
       xml:space="preserve"
       style="font-size:3px;line-height:125%;font-family:Arial;-inkscape-font-specification:'Arial, Normal';font-variant-ligatures:none;letter-spacing:0px;word-spacing:0px;fill:#010101;fill-opacity:1;stroke:none;stroke-width:0.264583px;stroke-linecap:butt;stroke-linejoin:miter;stroke-opacity:1"
       x="104.5999"
       y="23.024311"
       id="text4406-8-6-2-7"><tspan
         sodipodi:role="line"
         id="tspan4404-5-5-4-9"
         style="font-size:3px;fill:#010101;fill-opacity:1;stroke:none;stroke-width:0.264583px"
         x="104.5999"
         y="23.024311">(not used)</tspan></text>
    <text
       xml:space="preserve"
       style="font-size:3px;line-height:125%;font-family:Arial;-inkscape-font-specification:'Arial, Normal';font-variant-ligatures:none;letter-spacing:0px;word-spacing:0px;fill:#010101;fill-opacity:1;stroke:none;stroke-width:0.264583px;stroke-linecap:butt;stroke-linejoin:miter;stroke-opacity:1"
       x="144.71706"
       y="23.284645"
       id="text4406-8-6-2-7-8"><tspan
         sodipodi:role="line"
         id="tspan4404-5-5-4-9-4"
         style="font-size:3px;fill:#010101;fill-opacity:1;stroke:none;stroke-width:0.264583px"
         x="144.71706"
         y="23.284645">(not used)</tspan></text>
    <text
       xml:space="preserve"
       style="font-size:3px;line-height:125%;font-family:Arial;-inkscape-font-specification:'Arial, Normal';font-variant-ligatures:none;letter-spacing:0px;word-spacing:0px;fill:#010101;fill-opacity:1;stroke:none;stroke-width:0.264583px;stroke-linecap:butt;stroke-linejoin:miter;stroke-opacity:1"
       x="64.122887"
       y="114.04383"
       id="text4406-8-6-2-7-5"><tspan
         sodipodi:role="line"
         id="tspan4404-5-5-4-9-0"
         style="font-size:3px;fill:#010101;fill-opacity:1;stroke:none;stroke-width:0.264583px"
         x="64.122887"
         y="114.04383">(not used)</tspan></text>
    <text
       xml:space="preserve"
       style="font-size:3px;line-height:125%;font-family:Arial;-inkscape-font-specification:'Arial, Normal';font-variant-ligatures:none;letter-spacing:0px;word-spacing:0px;fill:#010101;fill-opacity:1;stroke:none;stroke-width:0.264583px;stroke-linecap:butt;stroke-linejoin:miter;stroke-opacity:1"
       x="145.93959"
       y="81.110191"
       id="text4406-1"><tspan
         sodipodi:role="line"
         style="font-size:3px;fill:#010101;fill-opacity:1;stroke:none;stroke-width:0.264583px"
         x="145.93959"
         y="81.110191"
         id="tspan7795">Too similar to TAO?</tspan></text>
    <text
       xml:space="preserve"
       style="font-size:3px;line-height:125%;font-family:Arial;-inkscape-font-specification:'Arial, Normal';font-variant-ligatures:none;letter-spacing:0px;word-spacing:0px;fill:#010101;fill-opacity:1;stroke:none;stroke-width:0.264583px;stroke-linecap:butt;stroke-linejoin:miter;stroke-opacity:1"
       x="60.925861"
       y="182.10876"
       id="text4406-1-2"><tspan
         sodipodi:role="line"
         style="font-size:3px;fill:#010101;fill-opacity:1;stroke:none;stroke-width:0.264583px"
         x="60.925861"
         y="182.10876"
         id="tspan7795-6">Also an option, fine details</tspan><tspan
         sodipodi:role="line"
         style="font-size:3px;fill:#010101;fill-opacity:1;stroke:none;stroke-width:0.264583px"
         x="60.925861"
         y="185.85876"
         id="tspan4687">but similar to Maki-Rectangular</tspan></text>
    <text
       xml:space="preserve"
       style="font-size:4.23333px;line-height:125%;font-family:Arial;-inkscape-font-specification:'Arial, Normal';font-variant-ligatures:none;letter-spacing:0px;word-spacing:0px;fill:#010101;fill-opacity:1;stroke:none;stroke-width:0.264583px;stroke-linecap:butt;stroke-linejoin:miter;stroke-opacity:1"
       x="143.40921"
       y="108.22316"
       id="text4406-8-0"><tspan
         sodipodi:role="line"
         id="tspan4404-5-0"
         style="font-style:normal;font-variant:normal;font-weight:bold;font-stretch:normal;font-size:4.23333px;font-family:Arial;-inkscape-font-specification:'Arial Bold';fill:#010101;fill-opacity:1;stroke:none;stroke-width:0.264583px"
         x="143.40921"
         y="108.22316">OSM</tspan></text>
  </g>
</svg>
