<?xml version="1.0" encoding="UTF-8" standalone="no"?>
<!-- Created with Inkscape (http://www.inkscape.org/) -->

<svg
   width="210mm"
   height="297mm"
   viewBox="0 0 210 297"
   version="1.1"
   id="svg5"
   inkscape:version="1.1 (c68e22c387, 2021-05-23)"
   sodipodi:docname="icon_sets.svg"
   xmlns:inkscape="http://www.inkscape.org/namespaces/inkscape"
   xmlns:sodipodi="http://sodipodi.sourceforge.net/DTD/sodipodi-0.dtd"
   xmlns="http://www.w3.org/2000/svg"
   xmlns:svg="http://www.w3.org/2000/svg">
  <sodipodi:namedview
     id="namedview7"
     pagecolor="#ffffff"
     bordercolor="#666666"
     borderopacity="1.0"
     inkscape:pageshadow="2"
     inkscape:pageopacity="0.0"
     inkscape:pagecheckerboard="0"
     inkscape:document-units="mm"
     showgrid="false"
     inkscape:snap-global="false"
     inkscape:zoom="1.3416246"
     inkscape:cx="359.26593"
     inkscape:cy="571.69495"
     inkscape:window-width="1920"
     inkscape:window-height="1836"
     inkscape:window-x="1192"
     inkscape:window-y="-8"
     inkscape:window-maximized="1"
     inkscape:current-layer="layer1" />
  <defs
     id="defs2" />
  <g
     inkscape:label="Layer 1"
     inkscape:groupmode="layer"
     id="layer1">
    <path
       id="path5"
       d="m 25.457057,26.594425 h -0.541205 c -0.180393,0 -0.180393,-0.180393 0,-0.180393 h 1.44317 c 0.180393,0 0.180393,0.180393 0,0.180393 h -0.541179 c 0,0 0.216482,0.156342 0.216482,0.517128 v 0.360812 h 1.5875 v 0.529167 l -1.5875,0.529167 -0.132292,1.322916 0.661459,0.348774 v 0.180393 h -1.852084 v -0.180393 l 0.661459,-0.348774 -0.132292,-1.322916 -1.5875,-0.529167 v -0.529167 h 1.5875 v -0.360786 c 0,-0.360812 0.216482,-0.517154 0.216482,-0.517154 z"
       style="stroke-width:0.264583" />
    <path
       id="path7712-0"
       d="m 27.621825,35.909249 v 0.444976 l -1.719791,-0.264583 -0.08419,1.262777 0.745649,0.457015 v 0.264583 l -0.926042,-0.180393 -0.926041,0.180393 v -0.264583 l 0.745648,-0.457015 -0.08419,-1.262777 -1.719792,0.264583 v -0.444976 l 1.719792,-0.613357 v -0.79375 c 0,0 0,-0.396875 0.264583,-0.396875 0.264584,0 0.264584,0.396875 0.264584,0.396875 v 0.745649 z"
       style="stroke-width:0.264583" />
    <path
       d="m 119.71453,68.887934 v -0.79375 c 0,0 -0.26459,-0.264583 -1.19063,-0.264583 -0.92604,0 -1.19062,0.264583 -1.19062,0.264583 v 0.79375 c 0.008,0.368168 0.0981,0.72988 0.26458,1.058334 0.1655,0.379624 0.1655,0.811001 0,1.190625 0,0 0,0.264583 0.92604,0.264583 0.92604,0 0.92604,-0.264583 0.92604,-0.264583 -0.16549,-0.379624 -0.16549,-0.811001 0,-1.190625 0.16653,-0.328454 0.25697,-0.690166 0.26459,-1.058334 z m -1.19063,2.248959 c -0.21076,0.0093 -0.42166,-0.01577 -0.62441,-0.07408 0.0537,-0.191135 0.0804,-0.388832 0.0794,-0.587375 h 1.09008 c -10e-4,0.198543 0.0257,0.39624 0.0794,0.587375 -0.20275,0.05831 -0.41365,0.08334 -0.62442,0.07408 z m 0,-2.248959 c -0.3139,0.0079 -0.6269,-0.0368 -0.92604,-0.132291 v -0.529167 c 0.29925,-0.09496 0.61217,-0.139647 0.92604,-0.132292 0.31388,-0.0074 0.6268,0.03733 0.92604,0.132292 v 0.529167 c -0.29913,0.09549 -0.61214,0.140202 -0.92604,0.132291 z"
       id="path845"
       style="stroke-width:0.264583" />
    <path
       id="rect3335"
       d="m 83.090816,65.50398 -1.455209,2.38125 h -0.132291 c -0.264584,0 -0.264584,0.264583 -0.264584,0.264583 v 0.264584 c 0,0 0,0.264583 0.264584,0.264583 h 3.439583 c 0.264583,0 0.264583,-0.264583 0.264583,-0.264583 v -0.264584 c 0,0 0,-0.264583 -0.264583,-0.264583 h -0.132292 l -1.455208,-2.38125 c -0.05292,-0.105833 -0.211667,-0.105833 -0.264583,0 z m 0.132291,0.926042 0.846667,1.455208 h -1.719792 z"
       style="stroke-width:0.264583" />
    <path
       d="m 118.38838,46.549192 h -0.17992 l 0.32279,-2.23573 c 0.005,-0.07586 -0.0531,-0.141075 -0.12896,-0.145706 -0.006,-3.7e-4 -0.0128,-3.17e-4 -0.0192,1.86e-4 h -0.31221 c 0,-0.243417 -0.32544,-0.529167 -0.72761,-0.529167 -0.40216,0 -0.72495,0.28575 -0.72495,0.529167 h -0.32544 c -0.0759,-0.003 -0.13994,0.05601 -0.14301,0.131947 -1.8e-4,0.0045 -1.3e-4,0.009 1.4e-4,0.01357 l 0.3175,2.23573 h -0.17198 c -0.0765,-0.003 -0.14124,0.05588 -0.14552,0.132291 v 0.396875 h 2.38124 v -0.399521 c -0.004,-0.07496 -0.0679,-0.132662 -0.14287,-0.129645 z m -1.8415,-1.852084 h 1.5875 v 0.264584 h -1.5875 z"
       id="path860"
       style="stroke-width:0.264583" />
    <path
       d="m 118.99306,35.360811 v -0.39952 c -0.001,-0.07202 -0.0602,-0.129673 -0.13229,-0.129646 -0.0745,0.0012 -0.13394,0.06263 -0.13269,0.13716 5e-5,0.0028 1.8e-4,0.0056 3.9e-4,0.0084 v 0.648229 c 0,0.146129 0.11846,0.264583 0.26459,0.264583 v 1.455208 c 0,0.07305 -0.0592,0.132292 -0.13229,0.132292 -0.0731,0 -0.1323,-0.05924 -0.1323,-0.132292 V 36.81606 c 0,-0.219181 -0.17769,-0.396875 -0.39687,-0.396875 h -0.39688 v -1.5875 c 0,-0.14613 -0.11845,-0.264584 -0.26458,-0.264584 h -1.5875 c -0.14613,0 -0.26458,0.118454 -0.26458,0.264584 v 2.910416 c 0,0.14613 0.11845,0.264584 0.26458,0.264584 h 1.5875 c 0.14613,0 0.26458,-0.118454 0.26458,-0.264584 v -1.058333 h 0.39688 c 0.073,0 0.13229,0.05924 0.13229,0.132292 v 0.529166 c 0,0.219181 0.17769,0.396875 0.39688,0.396875 0.21918,0 0.39687,-0.177694 0.39687,-0.396875 v -1.719831 c 0,-0.14613 -0.11845,-0.264584 -0.26458,-0.264584 z m -1.53448,0.899451 -0.68808,0.917417 -0.004,-0.0019 c -0.0123,0.02082 -0.0309,0.03712 -0.0568,0.03712 -0.0391,0 -0.0707,-0.03164 -0.0707,-0.0707 0,-0.0074 0.006,-0.01225 0.008,-0.01897 l -0.005,-0.0021 0.20548,-0.615024 c 0.0143,-0.04278 -0.0176,-0.087 -0.0627,-0.087 h -0.4376 c -0.0545,0 -0.0855,-0.06215 -0.0529,-0.105701 l 0.68808,-0.917417 0.004,0.0019 c 0.0123,-0.02082 0.0309,-0.03712 0.0568,-0.03712 0.0391,0 0.0707,0.03164 0.0707,0.0707 0,0.0074 -0.006,0.01225 -0.008,0.01897 l 0.005,0.0021 -0.20542,0.614998 c -0.0143,0.04281 0.0175,0.08702 0.0626,0.08702 h 0.4376 c 0.0545,0 0.0855,0.06215 0.0529,0.105701 z"
       id="path868"
       style="stroke-width:0.264583" />
    <path
       d="m 84.41618,21.30947 h -0.47625 l -0.92604,-2.778125 c -0.0529,-0.185208 -0.3175,-0.185208 -0.37041,0 l -0.92605,2.778125 h -0.47625 c -0.0794,0 -0.13229,0.05292 -0.13229,0.132292 v 0.264583 c 0,0.07938 0.0529,0.132292 0.13229,0.132292 h 3.175 c 0.0794,0 0.1323,-0.05292 0.1323,-0.132292 v -0.264583 c 0,-0.07938 -0.0529,-0.132292 -0.1323,-0.132292 z m -1.71979,-2.116667 h 0.26459 l 0.1852,0.529167 h -0.60854 z m -0.34396,1.058334 h 0.9525 l 0.18521,0.529166 h -1.32291 z"
       id="path876"
       style="stroke-width:0.264583" />
    <path
       d="m 118.06947,17.606903 h -1.85209 a 0.26458333,0.26458333 0 0 0 -0.26458,0.264583 v 2.910416 a 0.26458333,0.26458333 0 0 0 0.26458,0.264584 h 1.85209 a 0.26458333,0.26458333 0 0 0 0.26458,-0.264584 v -2.910416 a 0.26458333,0.26458333 0 0 0 -0.26458,-0.264583 z m -0.92604,3.042708 -0.52917,-1.058334 h 1.05833 z m -0.52917,-1.5875 0.52917,-1.058333 0.52916,1.058333 z"
       id="path884"
       style="stroke-width:0.264583" />
    <path
       d="m 119.38748,27.409898 v 0 1.455209 c 0,0.07305 -0.0592,0.132291 -0.13229,0.132291 -0.073,0 -0.13229,-0.05924 -0.13229,-0.132291 V 28.33594 c 0,-0.219181 -0.1777,-0.396875 -0.39688,-0.396875 h -0.39687 v -1.5875 c 0,-0.146129 -0.11846,-0.264583 -0.26459,-0.264583 h -1.5875 c -0.14613,0 -0.26458,0.118454 -0.26458,0.264583 v 2.910417 c 0,0.146129 0.11845,0.264583 0.26458,0.264583 h 1.5875 c 0.14613,0 0.26459,-0.118454 0.26459,-0.264583 v -1.058334 h 0.39687 c 0.073,0 0.13229,0.05924 0.13229,0.132292 v 0.529167 c 0,0.219181 0.1777,0.396875 0.39688,0.396875 0.21918,0 0.39687,-0.177694 0.39687,-0.396875 v -1.719792 c 0,-0.146129 -0.11845,-0.264583 -0.26458,-0.264583 v 0 -0.399521 c -10e-4,-0.07202 -0.0602,-0.129672 -0.13229,-0.129646 -0.0745,0.0012 -0.13393,0.06263 -0.13269,0.13716 5e-5,0.0028 1.8e-4,0.0056 4e-4,0.0084 v 0.648229 c 0,0.146129 0.11845,0.264583 0.26458,0.264583 0.14613,0 0.26458,-0.118454 0.26458,-0.264583 0,-0.146129 -0.11845,-0.264583 -0.26458,-0.264583 m -1.32292,0.661458 c 0,0.07305 -0.0592,0.132292 -0.13229,0.132292 h -1.32292 c -0.0731,0 -0.13229,-0.05924 -0.13229,-0.132292 v -0.79375 c 0,-0.07305 0.0592,-0.132292 0.13229,-0.132292 h 1.32292 c 0.073,0 0.13229,0.05924 0.13229,0.132292 z"
       id="path892"
       style="stroke-width:0.264583" />
    <path
       d="m 25.902099,44.282827 v -0.434446 a 0.13229167,0.13229167 0 0 0 -0.13229,-0.132292 h -0.26459 a 0.13229167,0.13229167 0 0 0 -0.13229,0.132292 v 0.434181 a 1.0559521,1.0559521 0 0 0 -0.78237,0.865717 0.13414375,0.13414375 0 0 0 0.13229,0.155046 h 1.83145 a 0.13414375,0.13414375 0 0 0 0.13229,-0.155046 1.0559521,1.0559521 0 0 0 -0.78449,-0.865452 z m 1.2274,-1.022086 -0.66146,-1.322916 a 0.13229167,0.13229167 0 0 0 -0.11827,-0.07382 h -1.42451 a 0.13229167,0.13229167 0 0 0 -0.11801,0.07303 l -0.66145,1.322917 a 0.13229167,0.13229167 0 0 0 0.11747,0.191558 h 2.168 v 0.396875 a 0.13229167,0.13229167 0 0 0 0.26458,0 V 43.45151 h 0.31591 a 0.13229167,0.13229167 0 0 0 0.11774,-0.190765 z"
       id="path900"
       style="stroke-width:0.264583" />
    <path
       id="rect4194"
       d="m 25.110736,18.790168 c -0.15875,0 -0.264583,0.10583 -0.264583,0.26458 v 1.05834 H 23.78782 c -0.15875,0 -0.264584,0.10583 -0.264584,0.26458 v 0.26458 c 0,0.15875 0.105834,0.26459 0.264584,0.26459 h 1.058333 v 1.05833 c 0,0.15875 0.105833,0.26458 0.264583,0.26458 h 0.264584 c 0.15875,0 0.264583,-0.10583 0.264583,-0.26458 v -1.05833 h 1.058333 c 0.15875,0 0.264584,-0.10584 0.264584,-0.26459 v -0.26458 c 0,-0.15875 -0.105834,-0.26458 -0.264584,-0.26458 h -1.058333 v -1.05834 c 0,-0.15875 -0.105833,-0.26458 -0.264583,-0.26458 z"
       style="stroke-width:0.264583" />
    <path
       id="path5571"
       d="m 83.025896,40.156349 c -0.07937,0 -0.105833,0.0529 -0.15875,0.10583 l -1.534583,2.51354 c -0.02646,0.0265 -0.02646,0.0794 -0.02646,0.10584 0,0.13229 0.105834,0.1852 0.185209,0.1852 h 3.069166 c 0.105834,0 0.185209,-0.0529 0.185209,-0.1852 0,-0.0529 0,-0.0529 -0.02646,-0.10584 l -1.508126,-2.51354 c -0.05292,-0.0529 -0.105833,-0.10583 -0.185209,-0.10583 z m 0,0.39687 0.873125,1.45521 h -0.211666 l -0.396875,-0.39687 -0.264584,0.39687 -0.264583,-0.39687 -0.396875,0.39687 h -0.238125 z"
       style="stroke-width:0.264583" />
    <path
       d="m 119.05307,76.912733 0.2831,-0.40745 c 0.0159,10e-4 0.0318,10e-4 0.0476,0 0.18267,-1.1e-4 0.33065,-0.14825 0.33057,-0.33089 -1e-4,-0.18267 -0.14824,-0.33068 -0.33091,-0.33057 -0.18264,1e-4 -0.33065,0.14824 -0.33054,0.33089 0,0.003 5e-5,0.007 1.6e-4,0.0104 0,0 0,0.0185 0,0.0265 l -0.66146,0.70114 z m 0.66145,0.529173 v -0.26458 h -2.38125 v 0.26458 l 0.39688,0.92604 -0.39688,0.92604 v 0.26459 h 2.38125 v -0.26459 l -0.26458,-0.92604 z m -0.52916,1.05833 h -0.52917 v 0.52917 h -0.26458 v -0.52917 h -0.52917 v -0.26458 h 0.52917 v -0.52917 h 0.26458 v 0.52917 h 0.52917 z"
       id="path922"
       style="stroke-width:0.264583" />
    <path
       id="path9064"
       d="m 82.622959,24.649321 -0.529167,0.52917 v 0.52916 h 1.058334 v -0.52916 z m -0.529167,1.19062 -0.396875,0.39688 h 1.852084 l -0.396875,-0.39688 z m -0.926041,0.52917 c -0.146129,0 -0.264583,0.11845 -0.264583,0.26458 v 1.455212 h 0.529166 v -1.455212 c 0,-0.14613 -0.118454,-0.26458 -0.264583,-0.26458 z m 0.529166,0 v 1.719792 h 1.852084 v -1.719792 z m 2.38125,0 c -0.146129,0 -0.264583,0.11845 -0.264583,0.26458 v 1.455212 h 0.529167 v -1.455212 c 0,-0.14613 -0.118454,-0.26458 -0.264584,-0.26458 z"
       style="stroke-width:0.264583" />
    <path
       id="rect3607"
       d="m 128.83767,75.784192 v 3.439584 h 2.24895 v -3.439584 z m 1.5875,0.264583 h 0.39687 v 0.926042 h -0.39687 z m -1.32292,0.01447 h 0.39687 v 1.308441 h -0.39687 z m 0.66146,0 h 0.39687 v 1.308441 h -0.39687 z m 0.85989,1.176151 c 0.10959,0 0.19844,0.0889 0.19844,0.19844 0,0.10959 -0.0888,0.19844 -0.19844,0.19844 v 0 c -0.10959,0 -0.19843,-0.0889 -0.19843,-0.19844 v 0 c 0,-0.10959 0.0888,-0.19844 0.19843,-0.19844 z m -0.85989,0.39688 h 0.38965 l 0.007,1.32291 h -0.38965 z m -0.66146,0.0439 h 0.39687 v 1.27899 h -0.39687 z m 1.32292,0.22066 h 0.39687 v 1.05833 h -0.39687 z"
       style="stroke-width:0.264583" />
    <path
       d="m 27.424614,53.25437 h -1.381125 l -0.60325,0.79375 -0.597958,-0.79375 h -1.386417 l 0.714375,-1.058334 -0.714375,-1.058333 h 1.402292 l 0.582083,-1.058333 0.619125,1.058333 h 1.36525 l -0.677333,1.058333 z"
       id="path944"
       style="stroke-width:0.264583" />
    <path
       d="m 83.859593,72.380521 a 0.06641042,0.06641042 0 0 0 -0.08308,0 l -0.593989,0.478366 a 0.06535208,0.06535208 0 0 0 -0.02434,0.05106 v 1.223698 a 0.06693958,0.06693958 0 0 0 0.06694,0.06694 h 0.395287 a 0.06693958,0.06693958 0 0 0 0.06694,-0.06694 v 0 -0.462227 h 0.264584 v 0.462227 a 0.06693958,0.06693958 0 0 0 0.06694,0.06694 h 0.395287 a 0.06693958,0.06693958 0 0 0 0.06694,-0.06694 v 0 -1.224227 a 0.06614583,0.06614583 0 0 0 -0.02487,-0.05292 z m -0.172243,1.026318 h -0.264584 v -0.264583 h 0.264584 z m 0.529166,0 h -0.264583 v -0.264583 h 0.264583 z m -1.664229,-2.430198 a 0.066675,0.066675 0 0 0 -0.111125,0 l -0.859366,1.090348 a 0.066675,0.066675 0 0 0 -0.01111,0.03704 v 2.029619 a 0.066675,0.066675 0 0 0 0.06641,0.06694 h 0.661459 a 0.066675,0.066675 0 0 0 0.06588,-0.06668 v -0.462492 h 0.264583 v 0.462491 a 0.066675,0.066675 0 0 0 0.06667,0.06668 h 0.197909 v -1.5875 a 0.13229167,0.13229167 0 0 1 0.04974,-0.103452 l 0.479425,-0.425714 c 0,-0.01323 -0.870479,-1.107282 -0.870479,-1.107282 z m -0.452437,2.165615 h -0.264584 v -0.264583 h 0.264584 z m 0,-0.79375 h -0.264584 v -0.264583 h 0.264584 z m 0.529166,0.79375 h -0.264583 v -0.264583 h 0.264583 z m 0,-0.79375 h -0.264583 v -0.264583 h 0.264583 z"
       id="path952"
       style="stroke-width:0.264583" />
    <path
       id="path21090-9"
       d="m 82.838871,32.46511 c -0.078,0 -0.129196,0.04688 -0.162824,0.101759 l -1.546807,2.523728 c -0.02035,0.02035 -0.02035,0.06104 -0.02035,0.101759 0,0.142478 0.101759,0.183171 0.183171,0.183171 h 3.073241 c 0.101759,0 0.183172,-0.04069 0.183172,-0.183171 0,-0.04069 0,-0.06107 -0.02035,-0.101759 l -1.526461,-2.523728 c -0.03328,-0.05506 -0.09673,-0.101759 -0.162798,-0.101759 z"
       style="stroke-width:0.264583" />
    <path
       id="path6447"
       d="m 82.891929,48.306955 c -0.03874,0.0013 -0.07501,0.01934 -0.09922,0.04961 l -0.439261,0.548798 -0.424762,-0.403066 c -0.115331,-0.106124 -0.286781,0.04088 -0.199469,0.171053 l 0.440796,0.635106 c 0.05062,0.07292 0.157268,0.07628 0.212381,0.0067 0.044,-0.05554 0.116787,-0.179334 0.249079,-0.179334 0.132291,0 0.209788,0.129831 0.249078,0.179308 0.0463,0.05831 0.131578,0.06697 0.188622,0.01913 l 0.441325,-0.370522 c 0.116628,-0.09898 1.59e-4,-0.28403 -0.139515,-0.221694 l -0.342635,0.154014 v -0.45683 c 5.3e-5,-0.07469 -0.06175,-0.134594 -0.13642,-0.132292 z m -0.921914,1.322917 -0.773588,1.567339 c -0.02035,0.02035 -0.02016,0.06112 -0.02016,0.101811 0,0.142479 0.101521,0.182933 0.182933,0.182933 h 2.544551 c 0.101759,0 0.182933,-0.04048 0.182933,-0.182933 0,-0.04069 2.12e-4,-0.06109 -0.02016,-0.101811 l -0.773589,-1.567339 c -0.132292,0 -0.264583,0.132292 -0.264583,0.264583 v 0.132292 c 0,0.07329 -0.059,0.132292 -0.132292,0.132292 -0.07329,0 -0.132292,-0.059 -0.132292,-0.132292 v -0.132292 c 0,-0.07305 -0.05921,-0.132291 -0.132291,-0.132291 -0.07308,0 -0.132292,0.05924 -0.132292,0.132291 v 0.529167 c 0,0.07329 -0.059,0.132292 -0.132292,0.132292 -0.07329,0 -0.132291,-0.059 -0.132291,-0.132292 v -0.529167 c 0,-0.132291 -0.132292,-0.264583 -0.264584,-0.264583 z"
       style="stroke-width:0.264583" />
    <path
       d="m 119.03417,53.923602 -0.35454,2.116667 c -0.0115,0.06265 -0.066,0.108241 -0.12965,0.108479 h -1.62983 c -0.0637,-2.38e-4 -0.11819,-0.04583 -0.12965,-0.108479 l -0.35454,-2.116667 c -0.0117,-0.07212 0.0373,-0.140071 0.1094,-0.151765 0.007,-0.0011 0.0135,-0.0016 0.0202,-0.0017 h 2.33628 c 0.073,-9.53e-4 0.13303,0.05752 0.13398,0.130572 1.1e-4,0.0077 -4.8e-4,0.01532 -0.002,0.02289 z m 0.1561,-0.550333 c 0,0.07305 -0.0592,0.132291 -0.13229,0.132291 h -2.64583 c -0.073,0 -0.1323,-0.05924 -0.1323,-0.132291 0,-0.07305 0.0592,-0.132292 0.1323,-0.132292 h 0.66145 v -0.396875 c 0,-0.07305 0.0592,-0.132292 0.1323,-0.132292 h 1.05833 c 0.073,0 0.13229,0.05924 0.13229,0.132292 v 0.396875 h 0.66146 c 0.073,0 0.13229,0.05924 0.13229,0.132292 z m -1.05833,-0.132292 v -0.264583 h -0.79375 v 0.264583 z"
       id="path974"
       style="stroke-width:0.264583" />
    <path
       id="path4133"
       d="m 129.56773,67.433951 c -0.64357,0 -1.39443,0.393304 -1.39443,1.394434 0,0.679318 1.07264,2.181013 1.39443,2.574316 0.28604,-0.393303 1.39443,-1.859227 1.39443,-2.574316 0,-1.00113 -0.75086,-1.394434 -1.39443,-1.394434 z"
       style="stroke-width:0.264583" />
    <g
       id="g1000"
       transform="matrix(0.26458333,0,0,0.26458333,22.1354,133.95412)">
      <polygon
         points="9,13 9,22 13,22 13,13 14,13 14,5 13,5 13,4 9,4 9,5 8,5 8,13 "
         id="polygon989" />
      <circle
         cx="11"
         cy="1.8"
         r="1.8"
         id="circle991" />
    </g>
    <polygon
       points="16,19 16,18 14.3,18 13.3,2.6 11,0 8.7,2.6 7.7,18 6,18 6,19 5,19 5,22 17,22 17,19 "
       id="polygon1002"
       transform="matrix(0.26458333,0,0,0.26458333,22.727033,122.71309)" />
    <g
       id="g1014"
       transform="matrix(0.26458333,0,0,0.26458333,22.332612,158.2111)">
	<polygon
   points="6,15 6,16 7,16 7,21 5,21 5,22 17,22 17,21 15,21 15,16 16,16 16,15 13,15 13,10 14,10 14,5 13,5 13,4 9,4 9,5 8,5 8,10 9,10 9,15 "
   id="polygon1010" />

	<circle
   cx="11"
   cy="2"
   r="2"
   id="circle1012" />

</g>
    <polygon
       points="10,4 7,7 10,7 6,11 9,11 5,15 9,15 4,18 10,18 10,22 12,22 12,18 18,18 13,15 17,15 13,11 16,11 12,7 15,7 12,4 14,4 11,0 8,4 "
       id="polygon1024"
       transform="matrix(0.26458333,0,0,0.26458333,22.332607,170.6354)" />
    <g
       id="g1043"
       transform="matrix(0.26458333,0,0,0.26458333,22.332611,145.39237)">
      <polygon
         points="13,5 13,4 9,4 9,5 8,5 8,10 6,17 9,17 9,22 13,22 13,17 16,17 14,10 14,5 "
         id="polygon1032" />
      <circle
         cx="11"
         cy="1.8"
         r="1.8"
         id="circle1034" />
    </g>
    <path
       id="rect239-1"
       d="m 28.147721,266.58096 v 0.50453 h 0.703994 v -0.50453 z m 1.378381,0 v 0.50453 h 0.70509 v -0.50453 z m 0,0.66247 v 1.39292 c 0,0.0668 0.05381,0.12065 0.120621,0.12065 h 0.0088 0.111849 v 1.35015 c 0,0.0646 0.05277,0.11736 0.117333,0.11736 h 1.035156 c 0.06457,0 0.117333,-0.0528 0.117333,-0.11736 v -0.84014 l 0.0022,-0.12284 -0.448495,-1.90074 z m -1.741344,0.002 -0.449591,1.90075 0.0022,0.12393 v 0.84015 c 2e-6,0.0646 0.05277,0.11736 0.117335,0.11736 h 1.035156 c 0.06569,0 0.118429,-0.0528 0.118429,-0.11736 v -1.34906 h 0.110751 0.0088 c 0.06681,0 0.120622,-0.0549 0.120622,-0.12174 v -1.39403 z m 1.219379,0 v 1.29531 h 0.365156 v -1.29531 z"
       style="fill:#010101;stroke-width:0.561499" />
    <g
       id="g1061"
       transform="matrix(0.26458333,0,0,0.26458333,26.151901,210.93875)">
      <rect
         style="visibility:hidden;fill:none;stroke:none"
         id="canvas"
         y="0"
         x="0"
         height="14"
         width="14" />
      <path
         id="path824"
         d="M 1,1 0,2.5 V 3 H 5 V 2.5 L 4,1 Z M 10,1 9,2.5 V 3 h 5 V 2.5 L 13,1 Z M 0,4 v 9 h 5 c 0,-1 0,-3 2,-3 2,0 2,2 2,3 h 5 V 4 H 9 V 6 H 7 5 V 4 Z M 2,6 H 3 V 7 L 2.5,8 2,7 Z m 9,0 h 1 V 7 L 11.5,8 11,7 Z"
         style="fill:#000000;fill-opacity:1;stroke:none" />
    </g>
    <g
       id="g1072"
       transform="matrix(0.26458333,0,0,0.26458333,26.743534,220.6021)">
      <rect
         width="14"
         height="14"
         x="0"
         y="0"
         id="canvas-7"
         style="visibility:hidden;fill:none;stroke:none" />
      <path
         d="M 0,1 V 4 H 14 V 1 H 12 V 3 H 10 V 1 H 8 V 3 H 6 V 1 H 4 V 3 H 2 V 1 Z m 0,4 v 8 H 2.5 C 2.5,10 3.487647,6.5 7,6.5 10.404489,6.473034 11.5,10 11.5,13 H 14 V 5 Z M 7,8 C 5,8 4,10 4,13 h 6 C 10,10 9,8 7,8 Z"
         id="city-gate"
         style="fill:#000000;fill-opacity:1;stroke:none" />
    </g>
    <g
       id="g1083"
       transform="matrix(0.26458333,0,0,0.26458333,26.349112,230.85708)">
      <rect
         width="14"
         height="14"
         x="0"
         y="0"
         id="canvas-8"
         style="visibility:hidden;fill:none;stroke:none" />
      <path
         id="fort"
         d="M 1,1 V 3 H 6 V 1 H 5 V 2 H 4 V 1 H 3 V 2 H 2 V 1 Z m 7,0 v 2 h 5 V 1 H 12 V 2 H 11 V 1 H 10 V 2 H 9 V 1 Z M 1,4 v 6 H 13 V 4 H 8 V 6 H 6 V 4 Z M 3,6 H 4 V 7 L 3.5,8 3,7 Z m 7,0 h 1 V 7 L 10.5,8 10,7 Z m -9,5 -1,3 h 14 l -1,-3 z"
         style="fill:#000000;fill-opacity:1;stroke:none" />
    </g>
    <g
       id="g1094"
       transform="matrix(0.26458333,0,0,0.26458333,25.95469,240.32322)">
      <rect
         style="visibility:hidden;fill:none;stroke:none"
         id="canvas-3"
         y="0"
         x="0"
         height="14"
         width="14" />
      <path
         d="M 6,13 H 8 C 8,12 8,10 7,10 6,10 6,12 6,13 Z M 0,1 V 3 H 5 V 1 H 4 V 2 H 3 V 1 H 2 V 2 H 1 V 1 Z m 9,0 v 2 h 5 V 1 H 13 V 2 H 12 V 1 H 11 V 2 H 10 V 1 Z M 0,4 v 9 h 5 c 0,-1 0,-4 2,-4 2,0 2,3 2,4 h 5 V 4 H 9 V 6 H 7 5 V 4 Z M 2,6 H 3 V 7 L 2.5,8 2,7 Z m 9,0 h 1 V 7 L 11.5,8 11,7 Z"
         style="opacity:1;fill:#000000;fill-opacity:1;fill-rule:nonzero;stroke:none;stroke-opacity:1"
         id="fortress" />
    </g>
    <g
       id="g1105"
       transform="matrix(0.26458333,0,0,0.26458333,25.560267,250.38099)">
      <rect
         width="14"
         height="14"
         x="0"
         y="0"
         id="canvas-1"
         style="visibility:hidden;fill:none;stroke:none" />
      <path
         id="palace"
         style="fill:#000000;fill-opacity:1;stroke:none;stroke-width:0.774597"
         d="M 12,2 11,3.5 V 4 h 3 V 3.5 L 13,2 Z M 1,2 0,3.5 V 4 H 3 V 3.5 L 2,2 Z m 3,2 h 6 V 3 L 7,0 4,3 Z M 0,5 v 8 h 5 c 0,-1 0,-3 2,-3 2,0 2,2 2,3 h 5 V 5 H 11.018051 L 11,6 H 10 L 10.03249,5 H 4.0433213 L 4,6 H 3 V 5 Z m 3,3 c 1,0 1,1 1,2 H 2 C 2,9 2,8 3,8 Z m 8,0 c 1,0 1,0.7301391 1,2 l -2,0.02539 C 9.9645368,8.7473493 10,8 11,8 Z" />
    </g>
  </g>
</svg>
