<?xml version="1.0" encoding="UTF-8"?>
<svg width="36.131" height="36.184" version="1.1" viewBox="0 0 36.131 36.184" xmlns="http://www.w3.org/2000/svg" xmlns:cc="http://creativecommons.org/ns#" xmlns:dc="http://purl.org/dc/elements/1.1/" xmlns:rdf="http://www.w3.org/1999/02/22-rdf-syntax-ns#">
 <defs>
  <style>.a{fill:#000;stroke:none;stroke-miterlimit:10;stroke-width:5px;}</style>
 </defs>
 <title>butterfly</title>
 <path class="a" d="m33.131 17.26a22.05 22.05 0 0 0 3-11.26c-0.19-2.92-1.79-6-5.13-6-3.7 0-7.09 3.3-8.48 6.26-1.17 2.5-0.41 6.67-4.46 6.8-4-0.13-3.29-4.3-4.46-6.8-1.38-3-4.77-6.21-8.47-6.26-3.35 0-4.95 3-5.13 6a22.05 22.05 0 0 0 3 11.26c2.38 4-1.87 6.79-1.06 10.85 0.6 3 3.47 7.74 6.87 8.05 3.4 0.31 4.85-6.63 6.17-8.87a3.91 3.91 0 0 1 6.24 0c1.24 2.25 2.56 9.25 6.1 8.88s6.27-5.07 6.87-8.05c0.81-4.07-3.44-6.82-1.06-10.86z"/>
 <metadata>
  <rdf:RDF>
   <cc:Work rdf:about="">
    <dc:title>butterfly</dc:title>
   </cc:Work>
  </rdf:RDF>
 </metadata>
</svg>
