<?xml version="1.0" encoding="UTF-8"?>
<svg id="svg10" width="36.134" height="36.158" version="1.1" viewBox="0 0 36.134 36.158" xmlns="http://www.w3.org/2000/svg">
 <defs id="defs4">
  <style id="style2">.a{fill:#000;stroke:none;stroke-linejoin:round;stroke-width:5px;fill-rule:evenodd;}</style>
 </defs>
 <title id="title6">car</title>
 <path id="path8" class="a" d="m23.62.0031739a16.7 16.7 0 017.79 2.34 2.44 2.44 0 011 1.9c.18 1.94.49 3.86.76 5.79.3 2.1.65 4.2 1 6.29.45 2.72.93 5.44 1.39 8.16.26 1.51.26 3 .56 4.55.06.29-.07.41-.35.41h-1.5c-.5 0-.5.15-.52.53a7.34 7.34 0 01-1.43 4.16 4.55 4.55 0 01-7.57 0 7.39 7.39 0 01-1.43-4.16c0-.39-.15-.52-.54-.52h-8.95c-.59 0-.58.42-.6.76a7.14 7.14 0 01-1.55 4.12 4.49 4.49 0 01-6.31.9 6.46 6.46 0 01-2.47-4.9c-.07-.81-.09-.87-.92-.87h-1.44c-.44 0-.53-.18-.54-.57a13.6 13.6 0 01.31-2.54q.5-3.33 1-6.65c.2-1.31.39-2.63.63-3.94.17-.92.65-1.22 2-1.3 2-.13 4-.23 6-.38.56 0 1.11-.12 1.67-.11.38 0 .56-.17.63-.56a56.73 56.73 0 00.74-7.23 7.49 7.49 0 01.65-3.42 3.3 3.3 0 012.5-1.74c1.7-.29 3.4-.59 5.12-.81a10.56 10.56 0 012.37-.21z"/>
</svg>
