<?xml version="1.0" encoding="UTF-8"?>
<svg id="svg12" width="36.14" height="36.142" version="1.1" viewBox="0 0 36.14 36.142" xmlns="http://www.w3.org/2000/svg">
 <defs id="defs4">
  <style id="style2">.a{fill:#000;stroke:none;stroke-linecap:round;stroke-linejoin:round;stroke-width:5px;fill-rule:evenodd;}</style>
 </defs>
 <title id="title6">duck</title>
 <path id="path8" class="a" d="m19.497 36.126a23.17 23.17 0 01-11.61-2.63 14.45 14.45 0 01-7.29-9.09 16.68 16.68 0 01-.57-5.38 9.78 9.78 0 01.89-3.53 12.68 12.68 0 011.58-2.93 3.85 3.85 0 01.58-.61 1 1 0 011.58.1c.68.7 1.32 1.44 2 2.13a6.85 6.85 0 004.83 2 15.26 15.26 0 004.9-.6c.46-.14.55-.35.41-.78a7.13 7.13 0 00-1.3-2.1 6.62 6.62 0 01-1.46-4.32 7.78 7.78 0 011.51-4.39 9.22 9.22 0 015.5-3.8 7.18 7.18 0 016.36 1.55 15.13 15.13 0 013 3.25 2.9 2.9 0 002.19 1.22c.71.08 1.43.1 2.14.13 1.16 0 1.64.72 1.29 1.85a6.81 6.81 0 01-2.66 3.57c-1 .72-2.09 1.31-3.13 2-.34.21-.45.33-.15.71 1.16 1.44 2.36 2.84 3.38 4.39a10.12 10.12 0 011.82 6.84 9.68 9.68 0 01-2.44 5.53c-2.49 2.76-5.75 4-9.29 4.57a21 21 0 01-4.06.32z"/>
</svg>
