<?xml version="1.0" encoding="UTF-8"?>
<svg width="36.14" height="36.142" version="1.1" viewBox="0 0 36.14 36.142" xmlns="http://www.w3.org/2000/svg" xmlns:cc="http://creativecommons.org/ns#" xmlns:dc="http://purl.org/dc/elements/1.1/" xmlns:rdf="http://www.w3.org/1999/02/22-rdf-syntax-ns#">
 <defs>
  <style>.a{fill:none;stroke:#000;stroke-linecap:round;stroke-linejoin:round;stroke-width:5px;fill-rule:evenodd;}</style>
 </defs>
 <title>duck</title>
 <path class="a" d="m19.497 36.126a23.17 23.17 0 0 1-11.61-2.63 14.45 14.45 0 0 1-7.29-9.09 16.68 16.68 0 0 1-0.57-5.38 9.78 9.78 0 0 1 0.89-3.53 12.68 12.68 0 0 1 1.58-2.93 3.85 3.85 0 0 1 0.58-0.61 1 1 0 0 1 1.58 0.1c0.68 0.7 1.32 1.44 2 2.13a6.85 6.85 0 0 0 4.83 2 15.26 15.26 0 0 0 4.9-0.6c0.46-0.14 0.55-0.35 0.41-0.78a7.13 7.13 0 0 0-1.3-2.1 6.62 6.62 0 0 1-1.46-4.32 7.78 7.78 0 0 1 1.51-4.39 9.22 9.22 0 0 1 5.5-3.8 7.18 7.18 0 0 1 6.36 1.55 15.13 15.13 0 0 1 3 3.25 2.9 2.9 0 0 0 2.19 1.22c0.71 0.08 1.43 0.1 2.14 0.13 1.16 0 1.64 0.72 1.29 1.85a6.81 6.81 0 0 1-2.66 3.57c-1 0.72-2.09 1.31-3.13 2-0.34 0.21-0.45 0.33-0.15 0.71 1.16 1.44 2.36 2.84 3.38 4.39a10.12 10.12 0 0 1 1.82 6.84 9.68 9.68 0 0 1-2.44 5.53c-2.49 2.76-5.75 4-9.29 4.57a21 21 0 0 1-4.06 0.32z"/>
 <metadata>
  <rdf:RDF>
   <cc:Work rdf:about="">
    <dc:title>duck</dc:title>
   </cc:Work>
  </rdf:RDF>
 </metadata>
</svg>
