<?xml version="1.0" encoding="UTF-8"?>
<svg id="svg10" width="36.945" height="35.472" version="1.1" viewBox="0 0 36.945 35.472" xmlns="http://www.w3.org/2000/svg">
 <defs id="defs4">
  <style id="style2">.a{fill:#000;stroke:none;stroke-linejoin:round;stroke-width:5px;fill-rule:evenodd;}</style>
 </defs>
 <title id="title6">flower</title>
 <path id="path8" class="a" d="m11.464 26.467a17.48 17.48 0 01-2.2 1.14 6.86 6.86 0 01-4.84.08 7.21 7.21 0 01-4.07-8.88 5.85 5.85 0 013.69-4c1-.35 2-.66 3.1-.94a18.58 18.58 0 01-2.13-2.28 6.22 6.22 0 01-1.32-4.52 7.08 7.08 0 013.09-5 7.17 7.17 0 016.15-1.29 7.61 7.61 0 014.67 3.79l.51.9c.42-.78.77-1.5 1.2-2.18a7 7 0 018.2-2.91 7.43 7.43 0 014.57 4.4 5.79 5.79 0 01-.86 5.75c-.55.76-1.21 1.42-1.84 2.23.52.07 1 .11 1.47.19a7.91 7.91 0 014 1.81 6.06 6.06 0 012 5.63 7.53 7.53 0 01-3.08 5.38 7.18 7.18 0 01-6.39.89 11.59 11.59 0 01-2.14-.79 14.16 14.16 0 01.24 3 6.66 6.66 0 01-4.25 6 8.54 8.54 0 01-5.38.31 6.09 6.09 0 01-4-3.25 7.4 7.4 0 01-.61-3.7c.14-.58.18-1.15.22-1.76z"/>
</svg>
