<?xml version="1.0" encoding="UTF-8"?>
<svg id="svg10" width="36.151" height="36.118" version="1.1" viewBox="0 0 36.151 36.118" xmlns="http://www.w3.org/2000/svg">
 <defs id="defs4">
  <style id="style2">.a{fill:#000;stroke:none;stroke-miterlimit:10;stroke-width:5px;}</style>
 </defs>
 <title id="title6">rabbit</title>
 <path id="path8" class="a" d="m33.497 20.498c-1.59-1.56-4.59-1.86-3.46-4.61a31.35 31.35 0 002.21-9.21 7.22 7.22 0 00-1.75-5.42c-1.13-1-1.62-1.59-3.3-1.05-3.33 1.05-4.27 3.57-4.87 6.42-.36 1.7-.42 4.33-1.24 5.57a3.92 3.92 0 01-3 1.78 3.92 3.92 0 01-3-1.78c-.82-1.25-.88-3.87-1.24-5.57-.6-2.85-1.54-5.37-4.87-6.42-1.68-.53-2.17 0-3.3 1.05a7.22 7.22 0 00-1.76 5.45 31.38 31.38 0 002.21 9.21c1.13 2.75-1.88 3.05-3.46 4.58-6.53 6.41.22 12.24 6.46 14.13a45.41 45.41 0 008.94 1.49 45 45 0 008.95-1.49c6.24-1.86 12.99-7.69 6.48-14.13z"/>
</svg>
