<?xml version="1.0" encoding="UTF-8"?>
<svg id="svg10" width="36.094" height="36.147" version="1.1" viewBox="0 0 36.094 36.147" xmlns="http://www.w3.org/2000/svg">
 <defs id="defs4">
  <style id="style2">.a{fill:#000;stroke:none;stroke-miterlimit:10;stroke-width:5px;fill-rule:evenodd;}</style>
 </defs>
 <title id="title6">tree</title>
 <path id="path8" class="a" d="m20.326 36.147c-2-.05.33 0 0 0a26.84 26.84 0 01-6-.8c-.64-.16-.79-.48-.61-1.08a10.63 10.63 0 00.43-3.35 41.79 41.79 0 00-.05-4.41c-.92-5-3.71-2.65-5.9-1.7-4 1.74-5.82.15-7-2-1.1-2-1.87-3.86-.33-6.66a8.53 8.53 0 013-3.08c.3-.41-1.81-1.56-.4-5.36.8-2.11 1.88-3 4.37-3.75.64-.19 2.11-.32 2.78-.44a4.84 4.84 0 002.69-2.08c2.78-3.46 9.76.07 11.51 2.82a3.34 3.34 0 003.82 1.45 4.24 4.24 0 012.75.64 4.8 4.8 0 011.67 1.27 5 5 0 011.61 3.29 4.45 4.45 0 01-.38 2.93c-.11.26-.61.92-.49 1.22s.87.66 1.15.92c2.81 2.65 0 9.1-3.45 9.1-2.67 0-9.75-5.77-8.32.85.46 2.14 1.77 4.95 2.42 7.18.72 2.4-4.02 3.04-5.27 3.04z"/>
</svg>
